<mxfile host="app.diagrams.net" modified="2024-03-11T03:46:53.286Z" agent="Mozilla/5.0 (Windows NT 10.0; WOW64) AppleWebKit/537.36 (KHTML, like Gecko) Chrome/122.0.6261.94 Safari/537.36 NetHelper70" etag="d1tTDVpGn0oBMXQWqxwr" version="24.0.4" type="github">
  <diagram name="페이지-1" id="6smUFEKWVkIZyXx7Bukp">
    <mxGraphModel dx="1434" dy="790" grid="1" gridSize="10" guides="1" tooltips="1" connect="1" arrows="1" fold="1" page="1" pageScale="1" pageWidth="827" pageHeight="1169" math="0" shadow="0">
      <root>
        <mxCell id="0" />
        <mxCell id="1" parent="0" />
        <mxCell id="J-4PL1bRExIhTpd28Z0a-74" value="" style="html=1;shadow=0;dashed=0;shape=mxgraph.bootstrap.rrect;rSize=5;strokeColor=#6C767D;html=1;whiteSpace=wrap;fillColor=#ffffff;fontColor=#212529;verticalAlign=bottom;align=left;spacing=20;spacingBottom=0;fontSize=14;" parent="1" vertex="1">
          <mxGeometry x="1390" y="40" width="590" height="720" as="geometry" />
        </mxCell>
        <mxCell id="J-4PL1bRExIhTpd28Z0a-75" value="Services" style="html=1;shadow=0;dashed=0;shape=mxgraph.bootstrap.topButton;rSize=5;perimeter=none;whiteSpace=wrap;fillColor=#0050ef;strokeColor=#001DBC;fontColor=#ffffff;resizeWidth=1;fontSize=18;align=left;spacing=20;" parent="J-4PL1bRExIhTpd28Z0a-74" vertex="1">
          <mxGeometry width="590" height="50" relative="1" as="geometry" />
        </mxCell>
        <mxCell id="J-4PL1bRExIhTpd28Z0a-77" value="&lt;span style=&quot;font-size: 20px;&quot;&gt;&lt;b&gt;Roles&lt;/b&gt;&lt;/span&gt;&lt;br style=&quot;font-size: 14px&quot;&gt;&lt;div&gt;- Manage Container&lt;/div&gt;" style="html=1;shadow=0;dashed=0;shape=mxgraph.bootstrap.rrect;rSize=5;strokeColor=#6C767D;html=1;whiteSpace=wrap;fillColor=#ffffff;fontColor=#212529;verticalAlign=bottom;align=left;spacing=20;spacingBottom=0;fontSize=14;" parent="J-4PL1bRExIhTpd28Z0a-74" vertex="1">
          <mxGeometry x="15" y="144" width="270" height="130" as="geometry" />
        </mxCell>
        <mxCell id="J-4PL1bRExIhTpd28Z0a-78" value="Docker" style="html=1;shadow=0;dashed=0;shape=mxgraph.bootstrap.topButton;rSize=5;perimeter=none;whiteSpace=wrap;fillColor=#1ba1e2;strokeColor=#006EAF;fontColor=#ffffff;resizeWidth=1;fontSize=18;align=left;spacing=20;" parent="J-4PL1bRExIhTpd28Z0a-77" vertex="1">
          <mxGeometry width="270" height="50" relative="1" as="geometry" />
        </mxCell>
        <mxCell id="J-4PL1bRExIhTpd28Z0a-80" value="" style="shape=image;verticalLabelPosition=bottom;labelBackgroundColor=default;verticalAlign=top;aspect=fixed;imageAspect=0;image=https://www.ibm.com/content/dam/adobe-cms/instana/media_logo/Docker.png/_jcr_content/renditions/cq5dam.web.1280.1280.png;clipPath=inset(17.7% 28% 18.14% 27.67%);" parent="J-4PL1bRExIhTpd28Z0a-77" vertex="1">
          <mxGeometry x="220.14" width="45.86" height="50" as="geometry" />
        </mxCell>
        <mxCell id="J-4PL1bRExIhTpd28Z0a-61" value="&lt;span style=&quot;font-size: 20px;&quot;&gt;&lt;b&gt;Roles&lt;/b&gt;&lt;/span&gt;&lt;br style=&quot;font-size: 14px&quot;&gt;&lt;div&gt;- Store unstructured Data&lt;/div&gt;" style="html=1;shadow=0;dashed=0;shape=mxgraph.bootstrap.rrect;rSize=5;strokeColor=#6C767D;html=1;whiteSpace=wrap;fillColor=#ffffff;fontColor=#212529;verticalAlign=bottom;align=left;spacing=20;spacingBottom=0;fontSize=14;" parent="J-4PL1bRExIhTpd28Z0a-74" vertex="1">
          <mxGeometry x="305" y="300" width="270" height="130" as="geometry" />
        </mxCell>
        <mxCell id="J-4PL1bRExIhTpd28Z0a-62" value="MongoDB" style="html=1;shadow=0;dashed=0;shape=mxgraph.bootstrap.topButton;rSize=5;perimeter=none;whiteSpace=wrap;fillColor=#1ba1e2;strokeColor=#006EAF;fontColor=#ffffff;resizeWidth=1;fontSize=18;align=left;spacing=20;" parent="J-4PL1bRExIhTpd28Z0a-61" vertex="1">
          <mxGeometry width="270" height="50" relative="1" as="geometry" />
        </mxCell>
        <mxCell id="J-4PL1bRExIhTpd28Z0a-64" value="" style="shape=image;verticalLabelPosition=bottom;labelBackgroundColor=default;verticalAlign=top;aspect=fixed;imageAspect=0;image=data:image/png,iVBORw0KGgoAAAANSUhEUgAAAOEAAADhCAMAAAAJbSJIAAAAolBMVEUAHisA7WQA8GUAHSsA8mYAACcAHCsAGioA9GYAGCoAACYADikAGSoAFyoADCkAFSoAESkA5GIABigAkEkAzlsA32AAt1QAqFAA1F0AJS0AMTAArFEAUjgA6mQANTEAok4Ax1kAaz4AnE0AXDoAOzIAQDMAKi4AiEcAdUEAzFsAv1cAgEQAYTsATDYAVzkAckAAACEAlksA/2oAf0YATjcARTQMLnchAAAHqklEQVR4nO2dWXuyPBCGIQQIoCzuG261q3b73vb//7WPgFRUYFDbiwlX7oMecZCnk0xmJpOoKBKJRCKRSCQSiUQikUgkEolEIpFIJBKJRCKRXIfma3UP4W/R3K7bbIl6979Hve5B/CXuTiXqnVP3MP6O1mREVDKatOoeyF+h6QOqqiod6E1divojFxhJbOpS9F8TgZHEV7/uwfwF1jxahAnRUrTqHs7vo7kDpqawgWPUPaBfx/6k6gHatese0G/TWanHrDp1D+l38TYBORJIgo1X96B+E9Po0RMb0p5h1j2s38Pwp0w9hQ0bFIPr3XOBkcRuYzZ+/YnkCIx4b4hE/y3IV0iCWSNiG9PsF5hQJf1WA7yN4S5P3WjGob644sc2+jrPy/x4m7XwmVTnvURf7G0Ej228+8JFmC7FTbvuQd6CoZcswv1SXAo9T/O3+pOlKHLG789AfdyK4u6K5sOofBHul2JvLOiuqOlDeI7G8/RT0HTYv6ukLyIUc54abqU5Gs/TkSdiaKN/QhvFAfopoD9tb6paMLbiXLh9X/MH1U3IQ3DhzhXdXTU/msJ2gp1IVdwKM9N0NBbL2VQJ146hYlVtWnMgpcgxYn8j0rGivrjEzSREyXDdw66ONb90jsYo4oSnnenlJoxW4lqYdN+aX7oIE8IHUYzYGV5jQp5jCGJE6z64SqCqBnMx3Onle+GPEcVwp+bkwnDmgCCBjfN03Srk0H8CRKeafrUJIyMuBZim3tvV+jgz/Gff+pVbRQIdojeipl+7VSSE6Cvg/oWZ7ylshbzsprkXFS/OoVPk/Qvm5LZJGsU1E9zBqb+6bZLin6b6VXlTFjpF7U0NuAAF/QeiyA3zNPXuwHimC1rxDfOm7z6Cy/Af9AF7dOuWUYL+Ai7DFfQBeUG8EDUDLiKCx8Kkb+DdEb23EBq/eg9+ESJeiO4W3ivG4Bd0izdJ1NewQh1WuMC7EO0lnPza4BeY0+AqmdMH/EmItnHBGIMmJP2PCmc2D1jrUd4MVjj6gMs45AvrkbcPV9nI88czrPAda3rhdmGFy48XUCHtYq3ud+BTQzr4gIsAdIFWIZwc0ulHhY+GSBVWqdHQhV3F0EhrNZoDZxZ0XUmhg1ShDzsR9ml/gikkwdo+pPlw0Ma6Npwkkxe0NuzBCh+rKHxGa0N4M2dbewsrXGJV6FTYzJ8Kr3llFOKdpbBCdaVDV0wwK6xyZrHTd2ClA+1+qLhwuBK+uXAth06x1hMr9NEEM3cGpsloozalA5dpgnsf7rbB2/7lwKW2/sab90GFaDsy4FML0n9oT8AyBkFbMG2B7fmkr7QUuFCD9pBUA2uhpG8ZPqwQb7eCDVWZyKhjuJBC0kNbTYR7acjIhv8NmHtqwONDbh4bykAo4gNED4rIeMFeh7LI8A6rK+XH+MAao4NIIRC9RjsK1pJ3BGQf3mgBLVayxOto4IXID86guxi4z/G9XbkNea96BypFoY1oOFA/Deu6ilveBk5GmJehArkRPgOBmcydEWa88uZL9uQozlP5J4j3Cg6wX7AnX/HfyxTi3isUXqsprWTwxsPy9kU6xZr9pniz0udodh4wkdk31vPfH+yyaRorLMuTeWiOnfKD4GivK72ugDnqTintgw5e20r7q+wDES7olbUJB6+WYn0XK8ScGh7wZoUpVHybuVXysFL4it7PcIrjGjKam4o5L4zs6KCDtkKTxfsqMiIZTQzFKL69R5DHMymaU2RE0htHCsdFZQxxHsdo3xfs6eTZjBQqRQrJtxgm5HXTAndKlp5WfNyP/KbFEdY8fyWSZeRJtE5RqUOk1+gLmoWTNvyCYo5Y7wwZSq6/LFMoyC3nH9xVnopkpeWvUrbCH5FmiXaMHH+a9KjnFtvY1BZkp0hpnz7gHcuID3fzim0kmAv30r6bU47hpbb8oqpoczTGPu9UZNtY4XlXFHvBn/ieY1hnOQQvtfF28FOFovnRFGd1Phd5i7p3VooKRXvKLEU/LWjwMg1vaDhRKO5PQZjWyVJk8ZGE93askL1YQs5RTuukK4HFKbz1faSQ9DsC1GaK8O7DrER2zzc96yi5inZCISoXRdhP2SyDxY/OtTZZhaHoD3rrjxkjhnM+H8151oRbkTKKPLTsq/PBhLsUc3KwK1uLFo6eYxwk7s+VMudTbK0L60YPGD/Z0j50Mcdp8kiHTRAYSWzva2+kp8Q2TEtRdOA3QmDkPK0kWSRLI1aoJUk+G1gCb4THmH78djnp+bEvTe5lsIXbGIF8LS5Y7FgiUaYbux620BskUOGyCOEd3G7b5XU4QtYN+P2VIwx9ywM4uvB50xcJt83wolk0fRdE2mjy5w5vG/ANOP5+HyQjRdCMFyItI2J++OI20hsneG+M3EpaKE2Kik3E2e7XIdo7MbfirfYpBfJH564n7dIIBXik9Dpam71CoV7QvwRNSXqFArNx8cye9PXWoJEBTUxyIQjzvaZbSZ7ko5gf1buR5DKJGO1519GJLyI0N6RJz0ZZY0MaZd+mz9A+dHU7ycuRmF9+vBXrO6CUBt/CtV1UxngYDgaDIfI7Izeh+Y7jNKXQnY/GqXsQEolEIpFIJBKJRCKRSCQSiUQikUgkEolE0lT+B4h2dnif2MTUAAAAAElFTkSuQmCC;" parent="J-4PL1bRExIhTpd28Z0a-61" vertex="1">
          <mxGeometry x="225" y="5.25" width="36.75" height="36.75" as="geometry" />
        </mxCell>
        <mxCell id="J-4PL1bRExIhTpd28Z0a-34" value="&lt;span style=&quot;font-size: 20px;&quot;&gt;&lt;b&gt;Roles&lt;/b&gt;&lt;/span&gt;&lt;br style=&quot;font-size: 14px&quot;&gt;&lt;div&gt;- Service Discovery&lt;/div&gt;" style="html=1;shadow=0;dashed=0;shape=mxgraph.bootstrap.rrect;rSize=5;strokeColor=#6C767D;html=1;whiteSpace=wrap;fillColor=#ffffff;fontColor=#212529;verticalAlign=bottom;align=left;spacing=20;spacingBottom=0;fontSize=14;" parent="J-4PL1bRExIhTpd28Z0a-74" vertex="1">
          <mxGeometry x="15" y="294" width="270" height="130" as="geometry" />
        </mxCell>
        <mxCell id="J-4PL1bRExIhTpd28Z0a-35" value="Zookeeper" style="html=1;shadow=0;dashed=0;shape=mxgraph.bootstrap.topButton;rSize=5;perimeter=none;whiteSpace=wrap;fillColor=#1ba1e2;strokeColor=#006EAF;fontColor=#ffffff;resizeWidth=1;fontSize=18;align=left;spacing=20;" parent="J-4PL1bRExIhTpd28Z0a-34" vertex="1">
          <mxGeometry width="270" height="50" relative="1" as="geometry" />
        </mxCell>
        <mxCell id="J-4PL1bRExIhTpd28Z0a-40" value="" style="shape=image;verticalLabelPosition=bottom;labelBackgroundColor=default;verticalAlign=top;aspect=fixed;imageAspect=0;image=data:image/png,iVBORw0KGgoAAAANSUhEUgAAAoAAAAFoCAYAAADHMkpRAABKhElEQVR4Xu3dB3gUyZ0GfLE5eb1r+7w+r+/sCz7fOdzZPtuffd/nO58v+WyvbWYALezCwrIwrUgUOecMM8oJRZCEBAgBIkcRJYFQQhHlnLNmpBnV19V4fbtds6AwPVM985af38P6z2i6W9JUv3R3VbkRQtwAAAAAwHUwBQAANSqpyX/pUs6pv7qUc/r/Ff+cLJor8hH5PoWX6APRr8Wv/aH451fbupqflb8/AIAzYQoAAGpx5m7K65Fn9v8q8uz+1etivOMFvfaqqFBn0DaKBgSDdkREnsIsvrZXp9fWiF97T3R+b8q6CPE9vSLP7PtRQeW9l+TbBQBQO6YAAMAj07DRrXeg+4Wmjvo310R7/HpNtGe4T+D0AkGvaRUehz2LlXA3XmZRj/jejUvCZmeK29oVeGLLP4rbf030nMViZvYPAEBNmAIAAE9GRkbc8iqz34y/GPhzwaDZIAazQiuBzR4GRZcFw2Sf63nn/qmyqfRF+b4CAKgFUwAA4EVeRdZrJ24d+o0YvKIEvaZSsO1VvvEyi/tyb22M56a02wn/T1NH3Qvy/QYA4B1TAABwtLbulmcOHN/005UH58eKgatKGN2zfPZE98coerg1Ycmug+cMX5UfAwAAz5gCAIAjGI1Gt+a2xhf3Jq39pm/gjDCdXtslPH4Wj7fw90l034Y99FOqfAPfW5B649DXWlqbn6W3reXHBwDAE6YAAGBvpmHTpGOXDn/Td8/spYJBUyzwcat3rEzivl9dslOYlVue+ab8GAEAeMIUAADs6XrBhVeizhtmCnrtFTFE9VkJVmrTsTR0TtThS6H/9qi+5Hn58QIA8IApAAAojd4irW4se3bHIb8fLQqdlajTa1qsBCn10muHRRWrDgq79Ylr/9xsMU+Sfw8AAByJKQAAKKmls/GF4pr8vxcDUpAYlrqZ8ORs9Nr6bQnLdGV1D7/WN9CDFUYAgAtMAQBACb0D3ZPO56R+Y1fSygViKLrPBCXn1i8c0KbHnA+YkVF4/nPy7w0AgL0xBQAAW0u+mvyM/vhGd8Ffc1F4fNWP55G9ShmhS9T5BE+PCTyx55+zirNwWxgAHIYpAADYgsVicevqa38p7dbhH3n5ux/W6TUdgjpH99qUTq8dFlUuCpm5Nb/y3jd6BrpxWxgA7I4pAABMVGVT+bM3Cy7+o7B/8k4x9DTIQxD8SfGqaGH2g/I7X2vvbsYVQQCwG6YAADBeTb1NbknZ8X++Pm6Bp6DX3BJwxe/p9NpeD/3kowEnNmuP5CW+Iv+eAgAogSkAAIzHsHnIbUvCkl/PC9SeEQz0dq/GFZ/zGyeNWWfQ1M8LmRqTnBH9N/LvLQCArTEFAIDRGho2udW1Vb0Sdnb/D32CpscIeg1dHxfBb/wsHoYp9d6B09dfyk3/ZmNHHZ4PBABFMAUAgNE4RU65pWUmfk/w124Ug0sFDS9WAg2Mj1kwaDKXhH0wJ7069Su5JJf5/gMATARTAAB4mvtlt9589+Kv5873n3xTDCv0qp88wIAN6AzazhlRv0pcelH438aO+hflPwcAgPFiCgAA1gyZh9zaulte2Bi7+BdLwmafxnN+dkOnjWlcHe0REXZq29eMQ8ZnzBYz8/MBABgLpgAAINfW0/Ly9rRNP9AZtOFiIDFZCSlgH/XzAqctO3Ir/pvGoUE8HwgA48YUAAA+ZjYPu53JOvotQ+qmNTqD5qEgPZvGhBKwL3rL/WrStci5d4uuvyH/mQEAjAZTAACgruWeeSkwbdt7YvC7LRg0fVaCCDiSXtu6JHT24ZCTO35e0VDynPznBwDwJEwBAFxbUW3hq35R3r/wDZp+SgwaXQKmdeHViBgCzTq9tmlx6MzAjUlr/6ZnoPt5+c8TAMAapgAArqm2terF7NKb3/cKcA8Qw0WnlcABHNPpNeXbE5f7ZJfd/OuegS48HwgAT8QUAMC19A/2uR27dvDr2xOWLxf02nsC5vNTsz6dQXMuLH3P7HMP0l6S/6wBAD7GFADAdRzKPTRp25FlGg+95oYY/noE3O51BvRn2OITNOOQ4dCOfyouLmZ+7gAATAEAnJtlxOJW3Vz+uaSrkf8mGKac0D0eVYrg52z02hGdXtvmYZiyP6s44ztNHXUYKAIAf8IUAMB5FVYXPnPh/snvCwcm7xVDQh0TGsA56TV5a6M8dJcfnPvL5s7mSfLfCwBwPUwBAJxPFalyW1m75K3VUT4LdXrtHQHz+bmaETEEds87MOXknqPrpi4bWPqC/HcEAFwLUwAA5zE0bHIbMPa9uCre851ZEb+5LgYBPOfn2sTgr2mbGf3r+EMXg/9B/N14HsvKAbgmpgAA6mcSg19+be5rYad3/lwwTI59fOJnwgC4LvqPgCbBX7v5XPbx7z1qKHxG/jsEAM6NKQCA+p24k/jdj4Lcd9K54QRM6wKfbVh0d1n4zPm5FZlfkf8eAYDzYgoAoF7ZxTc+739i63yvAPe7wuPRvfITPoA1HSsPzk/1T9v2q5auRqwmAuACmAIAqEtfX4dbXUvl64uD5v7GN3D6VZ1e26/Dc34wdmbx96Z7UcjMeP3x9d9q7Wh4yWQaYH7fAMA5MAUAUI/mzvpXAuOX/szjwB9CxJP3oJWTOsBY0X88VPrueWf1sYsh/2AcGsTzgQBOiCkAgDokXY/8271H120WT9YPhcfPcslP5AATMSDKiDkfMD+j4MLn5L9/AKBuTAEA+HYx79QL24+scBdPzrk6g7bfyokbwJbaFoXOOrorafXPqprKcTUQwEkwBQDgU35ZzhtLdnj8RjwhXxFwxQ/sr19n0ETvDNjy3Zauxhflv58AoC5MAQD4UtlU+sKlnFM/8Q2cESiehNusnJgB7Ean1z7cnrh8qfg7+c3u/i5cEQRQKaYAAHwwDg26RVzY8/bmQ4vWCgZNjoDJnIEbml4xCF7Rp27+MC3r8HPy310A4B9TAADHMg2bJi0dWPyq79FZU3UGTZ6g19Dn/DCtC/BmRAyBnd6B7kfdb77z06MDKS9aLBbm9xkA+MQUAMBx8ivvff7Q5dD/FYNfqmDQYCJnUIvW+QbNgRsFF35Y0VSKK4IAKsAUAMD+CiozJ6XdPvxPHv5T6HN+tQKu+IH6jOj0mntrYjwXpFxP+MvG9kbm9xwA+MEUAMC+imvzvrgqat5SwaDJFjC6F9RN/IeLpnvefu2FLYeXTjGaMIk0AK+YAgAor2ege1Jje+2bK6KEqT5B0+kAD9PjkydzQgVQI4sYBAcWhLyfHHl2308a2uteNQ2bmM8BADgOUwAA5QwPD7ll5557LTBt53/NP6CJFfR4zg+cGv1HTd38A9rtabcTf1haenuS/DMBAI7BFABAOak34v7ed887ep1eUy5gWhdwHUM6gzZrTeD7HtmlN/9M/rkAAPtjCgBgW2bzsNvd4uuf35a4VOcd+G6ueDLEVT9wRdK0MUvD55zdemjpf7d2NT1vtpiZzwsA2AdTAADbaG9vdyuvK/6Cl8F9ms6gvStIz0UxJ0UAVzQ8X69J2HrI758rasteHRgYYD4/AKAspgAAE9fQVvuy4dDOX3judw8RT3Z0Imf5CRDA1dGBImW+ez7YmHAu8rtDwyY8HwhgR0wBACYm+kLg13ckLd+t02tLBEzrAvA0A4Jemxl0cvu8iw9Ovyr/PAGAMpgCAIyNhVjcmoabnjmZlfDFFVHz53gYppRgFQ+AsdHpNd2+QTPOro0U/rOoOhdBEEBhTAEAxuZOdcYbP7r17SmCXntBwAAPgInqET9LkTnld39Y11L1kvzzBgC2wRQAYHTK6h8+d+xG7M8Whs6kz/m1WDmRAcD4jIghMG97wrI1x2/F/m3vYDeeDwSwMaYAAE82MjLitjlu/ZfXxnhu1Ok1DwU85wegBDqJdK9g0NzZlrBiZvyFeCwrB2BDTAEArOs39j5T11r15W2JfjN0em2VeGKiwQ/LtwEoi84fOOhhmHIm8WrEf4ifwdctmD8QYMKYAgCwbhZefT32YuBk8WR0XNBjWhcAB2kWDkwOuHT/5I9La/KelX9OAWD0mAIA/J+iooxJCecM/+RhcA8TTz61Aq74ATiaRdBr7q2L9lgWfjP47cbeRuZzCwBPxxQAgLiZhk2TCqsevLU8dPYKjwOTCwW9dsjKiQgAHEIzojNoeucFaG+ujvGcYjQNPj9sHmY+xwDw2ZgCgCtr726dVFST95ZfxJwZ4ommkD3xAABvdAZtcuCpnb8ors1/3TRkZD7XAMBiCgCuiI7svXrz8iuG1C2/mb9/8iGdNPqQPdEAAJfosnLV4p97E29F/nMCSWA+4wDwaUwBwBWlXIv+hs/emWHiSaRSPImYrZxgAIB/pnn+k+/POvU7n8zi61+Uf84B4P8wBQBX0dnT9uyVvDNv+0XMXewVMK1cPHngOT8A9RsR/yHXvyD4vRsrImb/oba18vM9gz3M5x/A1TEFAFdQWlfwZ4sCZrynM2hvCbjiB+CsTDrDlOjtqRt+3tRZ/5q8HwBwZUwBwJnVt9W8mJIR/R+ronRROoOm08oJAwCcC/0HXuneo2t3pFyP/o7FYmH6BQBXxBQAnFXo2V1vbYjzPSCeDCoFLN8G4GI0A4JeU7D7yKrZl+6nvSzvHwBcDVMAcCaDQ4PPHroU/bWP9rl76/R0ImeNRcBkzgCuii4rZxL/vOEZ/MHvcx5lvSnvMwBcBVMAcBb3Sm68npwR/b7Y2Z8XDVo5GQCA6+r0CXw34mremX+paCx5Ud5/ADg7pgCgdmX1Rc9GXwj42ZKQWZFiJ99ipeMHAKAsOoMmf9OhRZuiLvn/1YCxj+lPAJwVUwBQK+PQ4DMBEcLXlkV8tEOgz/np8ZwfADwVfSSkX2fQ5q8/uGDWqfS0V4bNQ5Pk/QuAs2EKAGrT09/5TGF1zte2JCz+UDBoKqx08AAAozGk02vOxl8M/m1Bdc4blhGMGAbnxRQA1OTWnaMvRJzd93vBMPm4gOXbAMA2GuYZNEGpmYnfvddwj+l3AJwBUwBQizOZKV9afEC7S6fX0jVA6eheeScOADBe5vn+2tvL4nRzHlbnviLvfwDUjikA8GxkZMTtfGf6i/995+e/9Apwvy7oNXRKB3nHDQBgCyM6g7bHN/i96J9V//PfdfZ14NlAcBpMAYBnueWZr3kdmLxE7JhrrXTWAABKub/x8JL/qGmpwJQx4BSYAgCvskpuvLU0dM5WsSPusdI5AwAoiY4WLt6W6De3rrXqVXn/BKA2TAGARw8eZb3tFz4nTOyA+6x0zAAA9kBDYPO6WO8lvQPdL8j7KQA1YQoAvMkqyfi22Omm/7HzlXfIAAB25xcxd3tzZ/0b8v4KQC2YAgBP7pfd/rpXwDQa/pgOGADAcTT9Ww4v3lLdXP5Feb8FoAZMAYAXmSUZX/ML/zBa7GyxogcA8EevbdtyeMnKxvba1+T9FwDvmAKAo9HZ9++V3vrSotCZgWInOyjg1i8A8GlEZ9B0Lo/8SOju73pW3pcB8IwpADhaZvmdl4X92g1i5zpgpcMFAOBN75oY4X9q2yoxTyCoBlMAcLSlsZ5TxQ613UonCwDAJZ1Bkx13OfAH8v4MgFdMAcCRTt898rfege658s4VAIBzpuWR86IKKnO+LO/XAHjEFAAc5cL9tC96+E9JEAwaDPoAANXRGbT9Pv4zljW01WC1EOAeUwBwhO6+jhfCz+zxFMNfm7xTBQBQkaqzWcd+Ju/jAHjDFADsbdg87GY4t5dO9pxppTMFAFAVD8PUo2eyzjwn7+sAeMIUAOxtwDTw7Hz/KdsEzPcHAE5Ap9f07k5Z9zuLxcL0dwC8YAoA9rY9bgG9+tcv70QBAFRqxMOgvZF6M/6r8v4OgBdMAcCeCiofPLcsfG6YlQ4UAEDNOvYdW+/Z3NmACaKBS0wBwJ5iLwT9SKfXPrLSeQJwx9N/qkReB7CCrmB0Mqf8zl/K+z0AHjAFAHvJKr7y/IIg992CXmu00nkCOMAU4hM0nSwJm022JfiRxCvh5EruGfKwOpfUtVaTtu5m0t7TKv3Z0tlAqpsfkYKqHHI17ww5dDmUbE9aTvzC50jv4SG+F/v+4Ep0Bm3P0og5U7v6O7FCCHCHKQDYS0b++e8Lek2WvNMEsDcP/6lkbYwnCTu9m1wVA19jRx2xWCxkrM0yYiHt3S3kWt45Epa+l6yP8yVeAdOY7YEL0WuPdfa2v06s9IEAjsQUAOyhq7fjWUPq5g8Fg6aX6TAB7IRepVsX402Sr0eTh9UPiHFokNiqDZoGSVl9EUm7k0jWx/oy2waX0ZF649C3iZV+EMCRmAKAPdS1VH1B/JdxnJXOEsAuaPhLuBJGKhpLxbA2QEZGRogSbWjYJG6jjCRdiySLQmYy+wHOb2XkfD9ipR8EcCSmAGAP98rvfEdn0DbIO0oApXkHupPtictJXmU2MVuGFQt+n2x0G2aLmZTVFZIdSSuJpz9uC7sSv/AP77V1tzxPrPSFAI7CFADswStw+gfyThJAad6B75Lo8wbS2F5nl+BnrbV2NZHQU7ulfZHvHzgnnUHTGnJ654+Ilb4QwFGYAoA9+AS+myDvJAGU5n9iK2nvaSGObDR4NnbUk6CTO6TBJ/J9BOejM2j7Qk7vWkys9IUAjsIUAJQWdDfwGbFTrJV3kgBK8gyYRioaSwgPjY4WrmoqIxviFjD7CU7JvDjo/UN38i9hfWDgBlMAUNq+I+v+SdBrB610kgCK2Z64TBrswVO7W3yNeAW4M/sKTkivvXku+/jfECt9IoAjMAUApe1NWTNb0GtMTAcJoKDdyau5C4DDw0Nk55GVzL6CE9Jry8QA+EtipU8EcASmAKC0vUfX7BQMGjPTQQIoaEnoB6Sjp53w1s5mH2f2FZxSmxgA3yNW+kQAR2AKAErqH+ydtCNpeZrweJ1MeQcJoKikq5HENGQkPDV6G1i+n+CUzL6hc5eVN5ZjWTjgAlMAUFJyRtQbOv3k21Y6RwDF+Qa9R1JvHZJGAtOBGDy09KyjzH6Ckzqg3V9Sm/8qsdI3AtgbUwBQUkpGzF/p9JocpmMEsJMFwe+RgLRt5MGjTOLoZho2SpNSy/cRnNXk6JK6/C8SK30jgL0xBQAlHc2I/aFOry1iO0YA+1oROY/0DfYQR7Vh87D0/J8n5gJ0IZoTJXUFbxMrfSOAvTEFACWJAfBfxQBYznaMAPZX1lBE7N0sFgtpaq8nhy6HEJ+g6cw+gRPTay6V1BZ8g1jpGwHsjSkAKEkMgP8l6LWVTMcI4AB3iq8Te7ah4SFyv+w22ZuyFquAuCK99oYYADEXIHCBKQAoSQyAvxY7wWqmYwRwgPSsFGKv1t3XSU7fTSErI+cz+wEuQq+9KwbAvyNW+kYAe2MKAEoSA+A7YieIZeCAC3GXgog9Gl3/N/dRFlkT7cnsA7iUrJK6gm8RK30jgL0xBQAlIQACT/Yf2yCGM/tMB2OxmMm57OPEO+BdZj/AZSAAAjeYAoCSEACBFxvifKRAZjYPE3u1mpYKsih0FrMv4DIQAIEbTAFASQiAwIuw03vI0LBJuj1rr0bnHvQNfo/ZF3AZCIDADaYAoCQEQODF4tBZ0m1Ze7aH1blkYfD7zL6Ay0AABG4wBQAlIQACT7r7Oog9W2dvG1kS9gGzH+AyEACBG0wBQEkIgMCTxvZaYs/W2deOAOjaEACBG0wBQEkIgMCT2w+vEHu2opo8sgC3gF0ZAiBwgykAKAkBEHiyPXEZae1qsstAkAFjP4k8e4B4GKYw+wEuAwEQuMEUAJSEAAg88Q58l0SdN5CG9hppjV4l2oj4v34x/J2/d4L4hc9h9gFcCgIgcIMpACgJARB44xM4nexJWUMqGkuJEm3IPERSbx0myyLmMtsGl4MACNxgCgBKQgAEXkWf9ydKtObORuITNJ3ZHrgkBEDgBlMAUBICIPBq06FFRIlWVv+Q2Ra4LARA4AZTAFASAiDwyi/8Q2JWYGLoisYSZlvgshAAgRtMAUBJCIDAq4UhM0l3fxexdWvpamK2BS4LARC4wRQAlIQAqG5Lw+aQC/dPfMqR6wfJish5zGvVxjdohiIDQXoHe5htgctCAARuMAUAJSEAqtv6OB8ib9Utj8i2BD/mtWrjHehObhRckB/ehFtNSwWzLXBZCIDADaYAoCQEQHVz5gBIJ2iOueBPzOZh+SFOqNH5/+TbApeFAAjcYAoASkIAVDdnDoDUpviFpLKxzCYrg9D36OrrIFud5HsDNoEACNxgCgBKQgBUN2cPgFTk2f2ko7d9wiGQLv126HII8QqYxmwDXBYCIHCDKQAoCQFQ3Zw9AHr6T5Ou2NG5+0ZGJrY0XHd/Jzl5NwkrgMAnIQACN5gCgJIQANXNmQPgruTV5PKDdGkk8KBpYMJXAGmj75NTfpdsPrSI2R64JARA4AZTAFASAqC6OVsA9AyYJu377YdXpOf1bD0AhDaLxUKaOupJ8vUo6WogHWwi3w9wGQiAwA2mAKAkBEB1c6YAuCD4PXL4Shhp7WqWH5IijQbBsrqHJPDkdmnSafn+gEtAAARuMAUAJSEAqpuzBMCVB3XkTNZRYhwalB+O4o0+G3jhfhrZGL8QVwNdDwIgcIMpACgJAVDdnCEAbohbQLJLbxLTkFF+KHZrQ8MmUl7/kOw6sprZP3BqCIDADaYAoCQEQHVTcwCk07EYUjeTxvY6YpngCF9bNDrIpKe/i+xOpiEQVwJdBAIgcIMpACgJAVDd1BoAF4XOJLEXA6SBHry1ysZSsjF+AbPP4JQQAIEbTAFASQiA6qbGAOgX/iFJz0yRrrbZYmoXWzd6O/hSzimyMOR9Zt/B6SAAAjeYAoCSEADVTW0BkIY/+ryfIwZ7jKV1i+E0/mIw8Q2czhwDOBUEQOAGUwBQEgKguqklAHoFuJOdSStJZVOZfHe5bWaLmWSWZJDV0QJzPOA0EACBG0wBQEkIgOqmhgDoEzidhJ/ZS2pbKqW599TU6P7mlN8h62K9meMCp4AACNxgCgBKQgBUN94DIJ1X79iNWNLe08Ll836jaaZhEzmXfZwsDMYzgU4IARC4wRQAlIQAyD/vwOlk79G15GLOSXKv/BZJvXWIbDm8RFo5g9cASIMfXWbtyoN0MUA5bn4/W7W27hayJ2UNc5ygegiAwA2mAKAkBEC+0SAl/ozIgLGffLLRQQrX88+Rw5dDP1WnzdEBkM7vtzdlLcmvvEeGFVjL11Ht+M146djkxwuqhgAI3GAKAEpCAOTb2hgv0jPQTT6rDRj75CVpbr3z906Q2IuBJDBtO1kX60M87RRc6HbiLgaRutYqMsLB5M62bAWV93Eb2PkgAAI3mAKAkhAA+RZ4cseYr6LRZ+3osmp9g72ks7eN1LdVk7tF18jOIyuZ97cl36Dp0u1penXSGRuduubYjTjMD+hcEACBG0wBQEkIgHzbkbTCJmvk0lBIAwx9Jm/VQZ10a1m+rYlYE+1BbhRclAZMqHWwx2iaxWImzZ0NJOqcnngHuDPfB1AdBEDgBlMAUBICIN/oM2e5j7JsNn3KsHlImtZkfZwvs63x2pG0nORWZEnz5rlKa+1qIruTMSjECSAAAjeYAoCSEAD5t+/oetLe3UJs1czmYXK3+DrxDnyX2dZYePlPIyGndpGKxlL5Jlyinb57xOZXUsHuEACBG0wBQEkIgPzy8J9K9h1bT2paK8mQeYjYstErgdHn/Zltjhad4oWu59vZ2676W750/8dzDIXVD4hXIG4DqxwCIHCDKQAoCQGQX/4ntkgTKCvVasVguSJyHrPdJ1kUMpPsF0NpdXO5/O1U24aGTdISdR29bWO61U5DY+TZ/bgKqG4IgMANpgCgJARAPvkETZcGbIwlkIy1DZoGpat4C8VQJ9++HL0auTXBj1y4d0K66udMjY5aNqRuJsGndpKCqvtjuhpIl7fDMnGqhgAI3GAKAEpCAOTT0rA5JKvkBlGy0aDTI4af89knyPInXAlcHSWQU3eSSG1rFRkats2t6MGhQdLa1czFwJH+wV4SIoY/eqxroj3Jo4Zi+Us+sw0aB8iRaweZ7xmoBgIgcIMpACgJAZBPXgHu5Gz28THPATjWRkMg3UZ7bytJzoiWJp72DZpBvAPdpVvQtx5eluYSpK8Zy5Wxz2r0iiadJPrg2QPSaiW9gz3yl9i90VVWYi74/+l7f+DYBmIZ5STW9Hty++FV6Yqt/GcIqoAACNxgCgBKQgDkF73lWlSTZ7cVNWjoae1ultYcPnojRpo30JaNvt/9sttk86HFfzpGesvV0a29p/VTS+eFpe8ZdQCkLfdRJvGL+JD5+YEqIAACN5gCgJIQAPm2LdGPXM09Q5o664nZ7PjbpeNt9CriqbtJZHnkR586vlN3j8hfavdGl83z9J8q7Q+dd7G0rlD+kie2+2V3yJLQ2czPDlQBARC4wRQAlIQAyD868nZ74nLysDqXqK3RW6R0Kbqgk9vJguD3mGM7mhEj/xK7t/WxPn/aH7qfY3nOkd7SvpZ3TgyQ9llrGWwOARC4wRQAlIQAqA6b4heSRw0lRC2NBj+6FvGdoqtPHGVMr246stGwtzR8jrQvy8LnkvL6ojE969jd10lCTu9ijgtUAwEQuMEUAJSEAKgO62N9SVn9Q6KG9vFAj4TL4WL4e585lo/RgS7VzY/kX27XZhwySgHQw38KOXQphPQN9Mpf8sSWXXqLLAz+7GME7iEAAjeYAoCSEADVgY7MpVfLlB4VbIv24FEm2Z28ingHPHmVjAPHN5JB04D8y+3aPg6Aq6J0JK8ye0xX//oGesiWw0uY4wJVQQAEbjAFACUhAKrH6mhPkl95j5jE0DKWoGKPRkcq9w50SxNLLw1/+ohYugJJfuV9RSe6Hk2jAZAuaxd1zjCmMErnLzx2Iw6rgKgfAiBwgykAKAkBUF3oVTW6hm9lY+mYBivQEcR0wmM65Ulrd5Oku79TmpplLFOeWGtm8zAprskj/ie2Es+Ax6Npn4QOBqFzHI5l/5VqNABuiFtAyupHP/KXhu+HVQ/IqoM65thAdRAAgRtMAUBJCIDqQ686bT68mFx9kP7Eq1Z0jVv6jN2domvkxK3DJOZCAAk8uZ3oUzdJ6Hx3CVfCyZmsYyS79AapbCqV5gGkS8SN5gojvR1NR/ieFb9+fdz/jaR9GnrbtL6tRv52Dmk0AO47up4MmUcfRmmQps8Lfjx1DKgaAiBwgykAKAkBUL2WhH4gBRGTGPTkjS4jF3BiK9kYv1BaVo6u5Sv/+o/RwRjLIj4kG+J8yfbEZWT/sQ2kpqVC/pZ/avSKYVFNLjl0OUQKc75jXAUjMG07N88y0gAYL34Px9LKG4qkFVPkxwWqhAAI3GAKAEpCAFS35RFzSc9AF5E3Ggzlrx0L+izfJ9ugqZ80tteSq7lnyc4jK6Slz54UKp8k4sz+T723Ixt9BpGufDLaRm9bn848whwTqBYCIHCDKQAoCQFQ3eiVO2sBMP5SMPPasaC3mB81FEu3aulybQlXwsiqKIF53XgEnNgmDaLgpRVUjn45up6BbrIzaSVzTKBaCIDADaYAoCQEQHVTKgDSefHo4IhdR1Yxy7dN1N6UtdIUKrw0Onp5tI0GYnr1U35MoFoIgMANpgCgJARAdVMqACqJPmfY0tko32VVtMySDOZ4QNUQAIEbTAFASQiA6qbGALj50OInDjLhqdHR0HTqnNrWSmmfD57TM8cDqoYACNxgCgBKQgBUNzUGQDqCtrSuQL7LXLae/i5iSN1MVkcL0q1w78B3meMBVUMABG4wBQAlIQCqmxoD4OOJoI9J8xTy3jIKLjL7D04FARC4wRQAlIQAqG5qDIDUuhgvUtFYMqoJpx3Vuvo6yNYEP2bfwakgAAI3mAKAkhAA1U2tAZC6/CBdWqKOx0bXNqYrpPgEzWD2G5wKAiBwgykAKAkBUN3UHADpEnK8rAgib3SC6KzSmyTuYjBJyYiR1l9ecXA+cwygegiAwA2mAKAkBEB1U2sAXBj8PsmrzJaWleO10XBK1/01DRtJ70APya/IJn7hHzLHAqqGAAjcYAoASkIAVDe1BsCw9D2ks6+DjBB+nwGUN/q84rnsVOId6M4cD6gWAiBwgykAKAkBUN3UGACXhH1AbhVe5vrq32c1Oi1M9IUA4hOI1UCcBAIgcIMpACgJAVDd1BgA96SskSZXVmOjVwErm8qkyazlxwWqhAAI3GAKAEpCAFQ3tQVA7wB3cvH+SWmUrVqb0TRIjt2IFY8Fk0I7AQRA4AZTAFASAqC6qS0Aro3xlgZWqL0NGPtI8vUo4uE/hTlGUBUEQOAGUwBQEgKguqktAKZnHpXvqmpb32Av2RC/gDlGUBUEQOAGUwBQEgKguqkpAK6M0pGG9lr5rqq6JV2LZI4TVAUBELjBFACUhACobmoJgPRW6fGb8cQ4NCjfVVW3YzfimGMFVUEABG4wBQAlIQCqm1oC4PpYb1JeXyTfTVU345CRbE9azhwrqAoCIHCDKQAoCQFQ3dQQAD39p5JDl0JIv7FPvpuqbXQC69tFV8Vjm8YcL6gKAiBwgykAKAkBUN3UEACXR3xEcisypTn0nKVVNpWSrQlLmGMF1UEABG4wBQAlIQCqmxoCYPCpHdK6ujw2eiXv8oN0UlKbT0xDxqcuTTdsHiIPa3LJ9kTc+nUSCIDADaYAoCQEQHVTQwC8kpsu3z1uGg18a2O8yKoogZzOTCY1LY+I2WKWv4yYxQDb1FEvTWJNXy8/RlAtBEDgBlMAUBICoLqpIQBmlmTId4+rlnj18VQuPkHTybYEP3L4Shi5mnuW3Cu7Re6X3RH/+4z4mgiyJ2U18Q2awRwfqBoCIHCDKQAoCQFQ3dQQALNKb8h3b8KNXrl72u3a0baWriYp+H28v3TQysLg98mSsA9Es6X/pjX5cYFTQAAEbjAFACUhAKqbGgJgRUOJfPcm3OizeLYaVGIZsZDimjyyPtaH2XdwegiAwA2mAKAkBEB14z0ALgmbQwZN/fLdm3Br7WqyWQCkbWjYRO4WXyMrD+qYYwCnhgAI3GAKAEpCAFQ33gPgocsh8l2zSbtfdtumAZA2kxgC6fsuCf2AOQ5wWgiAwA2mAKAkBEB14zkAbj60iNS1Vct3bcKNBr+kq5Hinxb5X02oWSwW0j/YR7JLb5LV0QJzPOCUEACBG0wBQEkIgOrGawBcHDqLZOSfV2T+P6NpkASkbZWe3bNlGzD2kdSbh8nOpJW4Cug6EACBG0wBQEkIgOrGYwD08J9CQk/vJl297fLdsknr6e8i2xL9iGnYKP+rCTUaVmMvBjHHA04NARC4wRQAlIQAqG48BkA6dYqSS7+1dTWTjfELSWt3s/yvJtzyK+8TD8MU5pjAaSEAAjeYAoCSEADVjccASCdLDj61U1pibcBo+xHAda1VZF2sNymuyZf/1YQbXQVkWcRc5pjAaSEAAjeYAoCSEADVjccA+LHjN+Ok9XVt3SoaS8maaE9yp+iq/K9s0gJPbmeOBZwWAiBwgykAKAkBUN14DYD0KuDNwos2H6lLW3FtvjRf35msY/K/skmjg1fkxwNOCwEQuMEUAJSEAKhuvAZAuqpGaV2hfLds0vIqssnyiHnSmr1KtObOBrI9cRlzTOCUEACBG0wBQEkIgOrGawAMTNtOevq75btlk5ZVkkGWhs2RpoJRopnNZmlVEL9wPAvoAhAAgRtMAUBJCIDqxmMA9A58l5y6k6TYKOCbBRfJotBZZHvicmnQhhKt39gnrWLiFTCNOT5wKgiAwA2mAKAkBEB14zEA0lG05Q1F8l2yWbvy4DRZEPw+2XRoEekd6JH/tc1a2u1E4h3gzhwfOBUEQOAGUwBQEgKguvEYAOntX7qsmlKNDv6gVxnpc4YtXY3yv7ZZu5Z3liwUg6b8+MCpIAACN5gCgJIQANWNtwDo4T+VPHiUJd8dm7YTtw4TT/9pZG2MF6ltrZT/tc1aW3cL2XJ4CXOM4FQQAIEbTAFASQiA6sZbANyWuIz0DfbJd8emLfl6lLSt1dEe0pyASrYzWUeZYwSnggAI3GAKAEpCAFQ3ngIgHTBxo+Ciord/6Xq9hy6HSttbFSWQRw3F8pfYtDW01zLHCU4FARC4wRQAlIQAqG78BMAp0vJv7T2t8l2xaRs0DZDo8/7SNulk0KW1ysw1+HGjcw6yxwpOBAEQuMEUAJSEAKhuvARAuvLH+XsnpCt0SjY66jf8zD5pm49vAZfIX2KzZhwykpBTu5hjBaeCAAjcYAoASkIAVDdeAiC9/bs1Yan0zFzvoHJTs3T1dpDgUzukbSr9DGBhVY40pY38WMGpIAACN5gCgJIQANWNlwD4sQXB75EL907Id8dmra27mRhSN0nbWhvtSWpbq+QvsUkbNPaT6PMG4mGYwhwjOBUEQOAGUwBQEgKguvEUAOlVwPD0PdJzekq1xo46sidljbS9x/MANslfMuFGVzChV//oIBP5MYLTQQAEbjAFACUhAKobLwHQw38K0R/fRBraahRbAo62qqbyP83N93glENuvN0z3P6f8LlmGtYBdAQIgcIMpACgJAVDdeAmAG+MXktK6h8Si0Nq8tI2I/6OjcpeEfSBtc1uiHzFblBl0MmDsk55nXBj8HnOs4FQQAIEbTAFASQiA6sZDAFweOY8UVj9Q9MofbQPGfnL4j3MAUsEnd0ihUIk2NGySrgL6YRCIs0MABG4wBQAlIQCqGw8BMOFKuHzzirTciiyyOPTx1T8q6dpB+Uts0miQrWwqJTuTVhI6v6H8eMGpIAACN5gCgJIQANWNhwC4LWEZKalTdkJmOsE0veX7ye1eeZAuf5lNGg2AXX0dUuA8cv0gWR7xEXPM4DQQAIEbTAFASQiA6sZDAKRXyfYkryF1rZWK3QY2mgbJ1j8O/vhYcU2e/GU2bfT2Mh3RXNlYSiLP7ifeAe9aOXZQOQRA4AZTAFASAqC68REAH08Bc+J2AjENmeS7YrN2s/DSp7bZ2dcuf4libcDUTw6e0xMPw1Tm2EHVEACBG0wBQEkIgOrGSwCk6LQsdGUOpa4C5lV+el3eh9UPiFnBUce00eXguvs7pfkH6RrEnv4IgE4GARC4wRQAlIQAqG48BUA6FyBdp5ferlWinbyb9KntbYxbQI7fiCOtXc02DZ10PePyhiKSkhFDAtK2kn1H15HticvJopCZzDGD6iEAAjeYAoCSEAD54hP4rrT+LB3t6hs046lXnHgKgJRnwDRy5HoU6Tf2TTiUDRgHSGZxhngsISQ9M4UsDZvDbM8rwJ2sjfEiV3LPkL7BXmKxWORvM6pGn/ejwa+rr50cuRZFlojff3pbW749cDoIgMANpgCgJARAvvif2Eoa22tJUXWuGGrSSeLVCLG2hWxPWk7WRHuShSHvf+r1vAVAyjvQXQptnb0d8t0aVTOLQayhvUYMYgdHHcLomr0HUjeS+2W3xSDYM6bwSYNjRVMpuXA/TbqNLX9vcGoIgMANpgCgJARAvhw4vlG6evbJRv9/fVuN9MwbHQiRdjtBGpCwO3m1tCwabwGQordLr+efl8LcaBsNbdUtFeRc9nGy68gq4uk/uvD3SfTqaXJGNDENGeVvzzRpzd/qHBJ93kA2xi+QribK3w+cHgIgcIMpACgJAZAv+4+tZwLgJxsNLcPmIWkN3JauRjEYVlsNWc2dDaSs/uFnOn4r/qm3lycq5PQu0tXXKd+1TzV6PC2djeRM1jESdHInWR/rQxZMcPk1euucfm+e1voH+8Rt7mC+HlwKAiBwgykAKAkBkC97j66Vbkkq3Ypq8hWf1251lId0K/dJra61SnqGj97ClX/9RFzKOSXfFNNo8NyRtJz5WnApCIDADaYAoCQEQL7QyY57B3qI0o2OnPUJnM5s35b2HVtP2nta5Jv+VDt19wjzdbYQeGLrU58DfNRYIo0kln8tuBQEQOAGUwBQEgIgX9ZEe5CefvaZPlu3IfMQWRQ6i9m+rSz8+BnAp8zTR6dakX/tRNFn+U7eSXxqACyre0jWxfowXw8uBQEQuMEUAJSEAMiXJWGzSfdTnpuzVaMDSOTbtxU6iKOxvU6+SablV92X5g+Uf/140Wlo6Iok/YNPv41On6MMTNvOvAe4FARA4AZTAFASAiBfaBhq7W4m9mgxFwKZ7dtK5Jn90mCVpzW6nNuORNs9hxeYto20dz/5tvMnW1ldIVms4JVQ4B4CIHCDKQAoCQGQP48aSog92sX7p5ht2wJdLzfxaqR8c1bbgLHfZlPW0Em0z2YfJ5an3Hb+ZKO3qPemrGXeC1wGAiBwgykAKAkBkD/ZpTeJPVpRbR6zbVugg0vS76bIN2e1DQ2byOm7ycx7jIdf+Ickq+SGfBNPbcdvHWLeC1wGAiBwgykAKAkBkD+nM5OJPVpTZz3xi5jLbH+iFga/T67lnZVvzmqjt4kv3D/BvMd4rDw4n+RVZMs38dR2Oec0816f5C0tz/ch2RDnK83TSG8z7zyyQprmhg6kseUzjGB3CIDADaYAoCQEQP5EnNlP7NG6+jqklUfk258oKYhV3pNvzmozDZtI2p1E5j3GY3nER9JScGNtJ24fZt6LohNlb03wI6fuJJHKplJxXz+9uggdrZ1ZkkEizu4jyyM/Yr4eVAEBELjBFACUhADIn62Hlz51ChNbtEHTAEnJiGa2P1503d59R9eR20VXRz2X4dDwkPTcnocNViWhV+NuFF6Ub+KpLfAkOxKYLmUXdylIDH7lZIR89s+C/l2/sVe69bxNDIvy9wHuIQACN5gCgJIQAPlDrybZYyoYy4iF3Ci4SLzGseau3NKwOSQ9M4U0dzZK7zvaRoNuW1czOXwlXFrCTf6+Y0G//vKD0/JNPLXpj2/61PusiJwnzWHYO9g96iBOB57UtlSStTHezH4B1xAAgRtMAUBJCID8oVef8kd5C3WiraQ2n6yN9mL2YSxWRQmkuCZf/tZjajRo0at3EwmBi0M/IDcLL8nf+qmN7vum+IVkfZwvSRCDKJ0fcDyNHkNpfaF0C1y+b8AtBEDgBlMAUBICIH/odCbnso8Re7S27haiT/30FbCx8A2aTm4WjP22q7VGA9REpoRZHe1Bimpy5W/71Eav3tErl3Ti6mHzsPyvx9T6jX0k8WqEzdc2BsUgAAI3mAKAkhAA+UPDQ+RZOpHyxMLIaBrdRtK1yHE/gxdwYqtNl66raCgd9xU0OqBlvFfvbNVoiL1TdI0sCZ3N7B9wCQEQuMEUAJSEAMgnOs1IU0cDsUe7W3RdDCwfMPvwNDQ0ZhRcGNPEy09r3X0dJPT0bmZbT0NvHdOBGKN9Zk/JJgYKsh5rDKsFAiBwgykAKAkBkE/LI+eRB+V3iT1aS2cjWTeOwQt0sERRTZ787SbU6Mjk5OtjH5kcnr73iaN17dkqmkqkZwrl+whcQgAEbjAFACUhAPLJ03+aNKp2NOvpTrTR5dAOHNvA7MPTrIv1IeUNxfK3m1AbNPaTpGsHmW09CX1msrh2YoNQbNnoFcB1MbgCqBIIgMANpgCgJDEA/koMgFVWOkZwsJBTO0lnbzuxR0vPHPtybHQljJK6QvlbTajRZ/iizxmYbT3J5kOLSEdPm/ytHNYKqx5IA1Lk+wk80twpqS34JrHSNwLYG1MAUJIYAH8pBsAKtmMER1sWMZdUNJTY5bm2lq5Gackz+T48yeKQWeNaeu1Jja5OMtZnAPcf22CXeRNH2x6UZ0q38OX7CRzSa66LAfCviZW+EcDemAKAksQA+DMxAJYwHSNw4Xx2KrFYRj+x8ngbvQ0clr6X2f6T0NvU2aU35W81oUYDYPCpHcy2nmR74jK7XSkdTaODUfzC5zD7CTzSnBcD4NeJlb4RwN6YAoCSjmXEflcMgPlsxwg8oOGGLpemdKNXGQuq7ksresj34UmySjLkbzWhRgNgyOldzHaehE5ETVcT4aXlPcoa91Q2YHcpYgD8CrHSNwLYG1MAUNKx67FviwEw20rHCBygV9mqWyqIPRpd0zbhShjx8B/dJMae/lNtfgWQzikYefYAs60noWsQN7TXyN/KYa1/sJckXomwyRJ7oCydQRshBsA3iZW+EcDemAKAkq7nnn1pUcj7V8TOcETeOQIfos772+UqIG1NHfXS2rhPW8nCK8BdelaPTiFjy0Ynpr758DJZOoZbqEvDZ5Pq5kfyt3JoMw0bybZEP2ZfgSsjc/drtxXVFLxIrPSNAPbGFACUtvfo2jixM7RY6SCBA34RH5IHFZnEMqL8s4C0FdcWkJUHdcx+fNLWhKWkvk2Zq24Dxn4SeyFAusIo3641dOm1QeOA/G0c3ui6wvJ9Ba4YtyWs9Wlsb2T6RABHYAoAStt7dM0awaAZttJBAgfoLdmdR1aSRw3FdhkQQoNmYNo2Zj8+id7iVHJ08vW882RB8PvMdq25cD+NmO2wbN5Y28FzemZfgSuN57KPTyFW+kQAR2AKAErbc3TtOzqDxmSlgwRO0GXX6Godt4uuSFfIlAyCxqFBsi1hGbMPn5RwVbkASN/3Wv65UQfAiDP7pcEjSu3PWBv92TS012IqGN7pNfliAPwpsdInAjgCUwBQmj5x55d1em0P00ECl/Spm8UgeFUKGbZ8NpBe+evoaSWptw4T36DpzHY/acvhJdLzgrYOXfT96KTOoad2P/U5xI/R5xEPXw4luRVZ0lVS+n1p72kh3f2dpG+wV1pezjRsktYstvX+0kbft9/YR1q7mkhlUxm5W3xdumIrjHL/wSFGdPrJ589lH/szYqVPBHAEpgCgtNzcXDdP/2kPrHSSwKkFwe+RXUdWSevm0jBY1VQuhZDxBhz6tZklGdIcfPS95duTo5NGB53cTu4UXSM1LRVkgG57nGvx0jkI6UTONLxl5J8nEWf2koUho7v690l0Sbg10Z7S9yUgbau0PnD0eQOJuxRMEq6Gk5SMaHL8Zjw5eSeJnLuXSi7mnCTX8s5K27z18Ip4LFdJdskNcq/s1p88eJRFCirvkaKaXAmdKufBo0zpdfTrzmYfI0czYknMeX8xmG8iG+J8ie8ovn/gcEMbDy8IedRUNIlY6RMBHIEpANiDeEI/YKWTBM7R5wOXhM0m68XgQa86RYmBh64hTK9CFdfkkfq2atLe0ypdDaO3Sel/N7bXkfKGImkKFxqE4sWAtCd5rbTyyFiuWtHb0nS07oa4BWRX8moSdnqPGIZiyNXcs1J4KqrOlUbn1rZU/klZfTEprM6RguOFe2lSMDOkbibbE5eTdbHeZHHorFFPQzNedHAJDYu+QTOkoLkoZKb0PVwqWhb+ofR9+NiKyHnSgJjV0YJkVZROqtHX0a8b6+opwAm9tifk1K4P5f0ggCMxBQB72BC36N91Bi2eA1S9KVLAoXPj0VujNKDQsPNJtOYt/h19DX3taG+1jgYNb3Tuwv/b/uN9+BNpu8psG2C05gX8oXbX9Q1/Ie8HARyJKQDYQ21r1dd1eu09eUcJAOBs5h+ckhZIApl+EMCRmAKAPYgB8NX5eu1uARNCA4CTW3Fw/kx5HwjgaEwBwB6Ghk1uaXcSfy/otY3yzhIAwIlUl9YVfk3eBwI4GlMAsJdruRf+fN5+baqAVUEAwDmZBcOUnZ297S/J+z8AR2MKAPZSVlc2aX3MEi+dXttlpeMEAFA1nUFbFXpqz78PGAeY/g/A0ZgCgD3FXwx9WwyAufKOEwBA5Sy6A9rY+2V3viDv9wB4wBQA7GnA2O+2IXaBF+0srXSgAABqNCLoNdUJV8Lfoc87y/s9AB4wBQB7S86Iek3sMHOsdKIAAGpkXho2++Cdomt49g+4xRQA7M00ZJr0wS7tbLHTxPrAAOAMWg8c3fgDeV8HwBOmAGBvFovF7Xz26a/oDmiOWOlIAQBUxSvQfUd9a80z8r4OgCdMAcARRkZG3NKzUn6u02vyBUwODQDqZNHptVdqWirelvdxALxhCgCO8rA657nV0Z4LxQ60z0rHCgDAN722ck/K+t919rbj6h9wjykAOFJxbf4bi0Jm4VYwAKiMpndfytpNzR0Nr8n7NQAeMQUAR1t3eMW3xM60QMCtYABQhxFBrz1x+GLYl+T9GQCvmAKAo/UOdk/akrjol2KHWiR1rGxnCwDAC7GP0tyLvxDyFXlfBsAzpgDAg4a22hd3Ja2iU8PUPe5gmU4XAMDhdAZtXtR5/S/NFjPTjwHwjCkA8KKxve7VTYcWeegMGqO80wUA4EB5zIWAKX2DPS/I+y8A3jEFAJ4MGPueXxvj5Sd2tF0CrgQCACc8/adWxl0K/r1p2PisvN8CUAOmAMCbjp7Wl3ckrfARDJpaASEQAByL9kElcReDfivvqwDUhCkA8Ki+rea1nUdWzdHptZVWOmQAAHswi31QZuzFoHeMQ4O48geqxhQAeNXa1fzi+livX4qdcI2VjhkAQEkWnUF79eD5gB/3DfY+L++fANSGKQDwbHh42G1j/Npvrjyoo5NFdwu4JQwAyhrR6bWt7vH/HXz44sFX5H0SgFoxBQA1KKrJe2tNjOdynUHzyEqHDQBgC8Oie/uPbZi/rm8Nwh84FaYAoBal9YUv/Wvuj/9b0GtPi520yUrnDQAwXkM6/ynB+05s/1FLVyOmeQGnwxQA1KTaUj3pVuGlr/iFzfb0CphWIhg0CIIAMF70kZJB38AZWUtCZk1tbK/7XM9AD9PvADgDpgCgVsdvHn57csq/68UOvEJ4fOtG3rkDAFilo32GXpOzOmy2X075nT+T9y8AzoYpAKjZgYF9Lwae3P2rjw5MjRE79E55Jw8AIEOv+tUKhskBxzJiflxYeJXpVwCcEVMAULv2nvZJ+VUPvrwmymOy2LHnWOnwAQAos/gPxbSIs/t/9bA65/PD5iGmPwFwVkwBwFkMmgYmldQVfnlZ2LzFHgemFgoYKAIA0rQumn5BP/n+5viF7w0Y+14aGjZNkvcfAM6OKQA4m7KyMrdD6RHfXhQ0wyDotVX0BGDlpAAAzm9EZ9DkrIvxXhtzbt9fdvW2Mf0FgKtgCgDOKuvh1VcOXQr9nRgC6STSvVZODgDgtDRt4p/hVx6k/6SkthAreYDLYwoAzqzf2PdMdfOjL+9OXu0ungxKRRYBVwQBnBVdxcMkGKZc+f8yfvCbk83H3xgZGWH6BQBXxBQAXMWBU3vfWBfrvUZn0BTo8HwggLPpo9O6bEtYPuvojaO44gcgwxQAXEllc9lzyTeif+wXNpfOH9hs5SQCACoi/mPOIv6j7uGOpBWbUq4d/BYdDCb/3AMAAiCApKg693Ppmcl02ph00aD8pAIAqtAvHJgStT9yx0/r26qxdi/AEzAFAFc1bB565kLm8S+uDJ87y8N/SoGg1xqtnGAAgDM6g6bXN2j6Fb+oj35TVv/w9b6+PubzDQCfxhQAgLgduhD61s6kFTt0Bm2ReIIZkp9wAIALgzq9Jifo1HbdtYJzr8s/xwDw2ZgCADzW3Nn4YmDS7p977X83UDBosKwcACf++JxfxYI9v92eeDHo+xjZCzB2TAEA/k9HR4dbaXXhm556998Leu0N8eRjlp+MAMCuzLoD2sR9yZv+pbzqwWuDg7jdCzAeTAEAWKYh46R7pbfe2BS36COfwOn3xZMQng8EsB86V2fP0vAPr4ifwd919na8iHV7ASaGKQDAk52+m/yNBXve2S/opYmkcUUQQFnDOoM2e1mMx8IHjzK/Iv88AsD4MAUAeDL6vFHm/dOvhKXv+8/5eu1BgU44y560AGDiGjwMf9ibnpn8o7zaPMznB2BDTAEARqd3oHtSXWvVm+tjvX/nHeB+XzBo6GhhLCsHMDH0M2ScHzT5ePT5gJ/XtVa+htu9ALbHFABg7CoaS95YESksmH9Amy1gWTmA8ZCe85t/YMr1rYl+0z2IB/M5AwDbYQoAMD65j3InpVyP/55XwLT9Or2m+o8nNPlJDgCs0WtzNsYt8EvOOPyNtu423O4FUBhTAICJya3Ieu3ItYO/Ek9oyeKJbYA50QHAJ3WIgu4UXf3nqqayF+SfJwBQBlMAgIkzDZsmre1b/bn5qdPf0Rk0+cLjIIgrggCPjej02i7voOknNwet/Nf84rxXRkYszOcIAJTDFADAtkLP7Xxry+Glq8UTXo6AZeUA+uik6obULXPT7x/DFT8AB2EKAGB71c0Vz5+/d+LHS8Pm7BNPgK1WTooAzo5eAS/ak7JmlfhZ+Fa/se8Z+ecEAOyHKQCAckprCl/32+H1v+KJ8LyA0cLgInQG7aBg0MRtSFz9vdauppflnwsAsD+mAADKoZNIm81mt6sF517akug31cN/6j3x5NgvP2ECOAW9pmNx6KyT2xOW/ltdS9XzZouZ+UwAgGMwBQCwn+Qb0V/ff3zDZvFkWSAaZk6gAOpE18q+HXshQHe78PKb8t97AHA8pgAA9tXa1fRSaNLqn3nt+71BZ9Bg2hhQM/qcX9W8QPcNyTfj/nHYPIT5/AA4xRQAwP56ezvcmtprP7cwcM7/+gS8e1XQ02emMG0MqIZFp9cOLAh+LyEobdM/NnTUv2wcMjK/5wDAD6YAAI6VW575Of3xTXN9g2bcEh7fSpOfbAF4MSL+Y6XzvYO/Or3iuOdvuvo6n5f/PgMAn5gCAPDhbHbqt+YFue8QT7KlIouVky+AI5l1ek320jBPIazS/6t5JI/5HQYAfjEFAOADHTH5oDrn1ehz+38uGCZHCZg2BvjRNM+g3XEx59QPSutKMZ8fgAoxBQDgi2nI6NY70P3ypsRF/zsr/DcZOoO2V8DzgWB3GnoVusMjaFpC4rXI7/cMdL+AaV0A1IspAACfmkmz28IG7y+tj/P1FU/EN0Vm9iQNYHMj4j86uj30k8/uP7p+RlxO7HPy300AUB+mAAB8K6t/+MzlB6e/p/Ofukc8OddaOWED2I5em7cpfpH3lZyT3+joacG0LgBOgikAgDpUNJa+djQj9heCXpMqYLQw2F6XKDCn/O53mzrqMboXwMkwBQBQl+SCZLfNR5b9WjxZ3xb02h4BzwfC+NHbva0Lg99P2J687ocPax8yv28A4ByYAgCoz9CwyS3pevTXdiWtWC7oNdkClpWDMdP06QyaSxFn9n14Jef0S/LfMQBwLkwBANSrvrX6hbvF136wKHTmfvGk3sGe5AFYYvAr25OyZrH4u/PNvsFeTOsC4AKYAgCoX1l9yaseB+b8wjvw3VOCQdMtwm1h+BSdnk7krG1fGDwzYs/h5X/b09/1ovz3CACcF1MAAOdx4+GFlwLStkwT/LW3xZN+nzwEgKvStPmFf3jE//i2X9Q2V2JaFwAXxBQAwPlEZPl/839O/myNzqApEDB/oCsz6gzajP+6/i9zs0tvfEH+ewIAroMpAIDz6Sbdbjd6rr8ceGzzDwWDJlDAsnKuhj4CUCdadeJ2wt9nDF9/Vv47AgCuhSkAgPOiy8p19XW8uDbO5xdLw2eni2Gw84/hQB4YwDnQq73Nq6OE6LCz+78+YOx7zmweZn4vAMD1MAUAcA25lVlvrA9dNFfQT7ku4Iqg09EZNB0fBWpTth1d+dv2npYX5D9/AHBtTAEAXEdpaanbmbvHvuOhn7pJ0GsficHBIg8SoDoW8Wd5b3X43DmXCs9+tba7lvm5AwAwBQBwLcPmYbfq5opXYi4E/tgzwD1aeHw1ELeFVYdO9TOlycswdUtG3vl/aGyrwXN+APCZmAIAuLZdicv/x2v/H87p9Hg+UCUsOr22UdBPiz5xK/7v5D9PAABrmAIAuLbu7la3kxdDv7IpfoGXoNdk0IBhJXSA49F1e3t0Bs2JwJPb3VOuJWP5NgAYNaYAAEBVNZc9e6fo6nfmG7Q7xbDRaCWAgGMVb4xdNDe77OZfdvS2Yfk2ABgTpgAA8LGRkRG39p6Wl9MzU37iE+ieKBg0dH1h3BZ2GM2woNfWLgqZuau4Nv+vu/u7sIoHAIwLUwAAsOZ8dtIzhtSNGp1ec1kMI10CgqCdaZoXBr8fHZa248fFVbm44gcAE8IUAAA+y6BpwO1M5tFv7E1Zu0gMJNkiPB+ovH7x+3w2/lLQrBv5l16T/0wAAMaDKQAAPE1LZ+OLv679z3/4KOAPBjGg9FoJLWATmup3Uv7Ve2Pt6q/3G/swrQsA2AxTAAAYjUEy6FbTUv38mphlP1kUOuuIoNe2sAEGxoE+51e96qBOvydp7VcHzYPPDJEh5vsPADARTAEAYKxuF15+NeZ8wHQxvFwT9VkJNTAqmvblkXOj4y4G/XtNcwWWbwMAxTAFAIDxsFjMbqnXkv5uwe45y8QwUyRg/sCxGBJdW777d7PyK7O/IP/eAgDYGlMAABgvk8nk1tBS91Jo6pZ/8Al4N0TQ0wEMCIJPYPbQT6n1CX5vSXr28a83tVTiOT8AsAumAABgC70DPc/sT1n/81VRuqNi0GkVMG3MJw3TAR5bE5aGxl8I/Kr8ewcAoDSmAABgS4VVOV9aGeM7W2fQXhce3+qUhyEXo+n+aJ82fteR9b9u7W5+Wf79AgCwB6YAAGBrZY1lbpcenPq2LmDyWjEIVguueTVQPGbN/aWRH7x/r/TuVxraGpjvEwCAvTAFAAAlmC1mt66+9heOXDn47ZUH54eLgYguK2e2EpScis6gGfYOfLds5UHdqqySG3/R3d+F5/wAwOGYAgCA0mgY3H903e889No0J15f2KIzaGu8DVMjTt098m359wAAwJGYAgCAPXT2tLldyj7x9ub4xfOEA9rbVgKUeum1/fP1mpSwM3s11+6fxvJtAMAdpgAAYE+N7XXPPXiU+fc6g3an8Hi0MBuo1KVyfYzP+2X1D/+8u7/zGfnxAgDwgCkAANjbyMiI26OKR5P2RW/9zoKgGQd1ek2ToKbbwnrtkLjPxcsjPlrvH7H/y8PDWLoNAPjGFAAAHOlCVtrz4el73XV67Unh8UARnoMg3bfaBUHvB8dfDPlJYeUDXPEDAFVgCgAAjtZv7Jt06+GVvzhwbN0HYsC68MegJQ9fjkT3p1MUl3z94Dv3ym5/Tn4MAAA8YwoAALzo7u98tr6t+q1FoTPdfQLcL9NJlAVpFQ0mkNkDDX0mOmp5QdCMWMOJTT9tbK9702gamCTfbwAA3jEFAAAe5ZTfft5wfONP9x5dt1/Qa7LFMEafE7RHGDSKahYGv39ef3zTMkPqhm929LQi9AGAqjEFAACeGU2Dk9JuHf6btNsJ766J8tgmhsGzYkCrFKSrc0x4G68BUb743kn64xtXi9v67bW8s2/K9wUAQK2YAgCAWlQ0lLyQV5H9DdFPA09snSoc0G4U9NpknUGbo3s8gMRiJdzJDYmvbdTptTfFr40Q32PZydtJvxXf8/t5FVlvtXY1YeUOAHA6TAEAQI3olcHege4XRK+IXhd9YXfqirdXR3v8eE2M53+sifH43doYj8mU+P9/Lf7//xD/7rvH7sS8Jb72TdHnRC+Lnhs2DzPvDwDgTJgCAAAAADg3pgAAAAAAzo0pAAAAAIBz+/8Bp5lspwRM5+8AAAAASUVORK5CYII=;clipPath=inset(0% 24% 0% 22.67%);" parent="J-4PL1bRExIhTpd28Z0a-34" vertex="1">
          <mxGeometry x="223" y="4" width="40.71" height="43" as="geometry" />
        </mxCell>
        <mxCell id="J-4PL1bRExIhTpd28Z0a-49" value="&lt;span style=&quot;font-size: 20px;&quot;&gt;&lt;b&gt;Roles&lt;/b&gt;&lt;/span&gt;&lt;br style=&quot;font-size: 14px&quot;&gt;&lt;div&gt;- Message Broker&lt;/div&gt;&lt;div&gt;- Support Kafka Streams&lt;/div&gt;&lt;div&gt;- Support Kafka Connect&lt;/div&gt;" style="html=1;shadow=0;dashed=0;shape=mxgraph.bootstrap.rrect;rSize=5;strokeColor=#6C767D;html=1;whiteSpace=wrap;fillColor=#ffffff;fontColor=#212529;verticalAlign=bottom;align=left;spacing=20;spacingBottom=0;fontSize=14;" parent="J-4PL1bRExIhTpd28Z0a-74" vertex="1">
          <mxGeometry x="15" y="444" width="270" height="160" as="geometry" />
        </mxCell>
        <mxCell id="J-4PL1bRExIhTpd28Z0a-50" value="Kafka Broker" style="html=1;shadow=0;dashed=0;shape=mxgraph.bootstrap.topButton;rSize=5;perimeter=none;whiteSpace=wrap;fillColor=#1ba1e2;strokeColor=#006EAF;fontColor=#ffffff;resizeWidth=1;fontSize=18;align=left;spacing=20;" parent="J-4PL1bRExIhTpd28Z0a-49" vertex="1">
          <mxGeometry width="270" height="50" relative="1" as="geometry" />
        </mxCell>
        <mxCell id="J-4PL1bRExIhTpd28Z0a-53" value="" style="shape=image;verticalLabelPosition=bottom;labelBackgroundColor=default;verticalAlign=top;aspect=fixed;imageAspect=0;image=data:image/png,iVBORw0KGgoAAAANSUhEUgAAAoAAAAFoCAYAAADHMkpRAABOfklEQVR4XuzdB3gUx90/cGE7dmzHsdOdvE7y2uYOA7qT7tS7EAIhIRCi9947ovduU0zvvZreezdgem8ChGhCoqj3LvH776zj/+vsHEJ3utPenr7zPJ8nyS9odtVmv9rdmbEjIjsAAAAAqDi4AgAAAADYNq4AAAAAALaNKwAAAACAbeMKAAAAAGDbuAIAAAAA2DauAAAAAAC2jSsAANiCJ8+e2c1btuzjhUuX/0PwvwuWLFMzC5cs+1r43/9cuHTpn7fu2/eu9OMAACoCrgAAoERjJ075S7su3esI+goW1G/aYl9lre6UWqu/KLii1uivi7S6a8L/viz85zmdt99h4d9uaNelxyThP5sJ7G9H3n1f2jcAgK3hCgAA1qywsNDu6vUbn125fv2b4LDwsGo6lyWC20KoyxFCXZFKqy8WvFb/jN5C/Hc/f4yuSAiIhd84OicJ/e0S9F+1dp3H1evX/xEX9/w30vMAAFAyrgAAYI0ePXr8zqIlK76cOW9B6ypa/SohsN0VgluBgVBnNkL/KUKoPNCyXacRC5ctr7Ft254PpecFAKBEXAEAwNoMHz3hi3qNmk1Sa/QXhVCWLA1q5SBPOO5jvbvvlnZdegZdvX7zA+k5AgAoCVcAALAGkXfv/3bh0mUu1Zxc5qrFO3H6YnXpHuta0muVRl9QVedytU54eONr12/8LTU17R3puQMAWDuuAAAgpwcPHlVavHTVNy7eAePUWt0jFroMBDEroMuqbK/bNnDYyMZbt+75rfTzAACwZlwBAEAunTp3/iC0YbPuanv9BbVGl8eHLqtTLJznS0cXn2VNW7T65vTp09znBABgjbgCAEB5ys/Pt7t+8+ZnvftFhKjtHc+oNPpCtdXe9TNMOOdilb3uZTVH529PnznzdWxcHNYXBACrxhUAAMrLsbNn35k+Z66XSuu4XK3VJUmDlTI5nm3aqk3HhavX/DUrJ4f7nAEArAFXAAAoD2fOnf+rV+3gUSqtPlIITkV8kFIsdvcy+WtHp32DR472ln7eAADWgCsAAFhKUnJypRu3bv/VPzikfXW9a5QQlBT3uNcIr6s4OKVrXNyXLVq23OleVBR2GAEAq8EVAAAsYeOmTR/2jhgUVlnjuFUIR7kGApOtYgH3gYuP37BlK1d9GR0dzX1tAADKG1cAADC3pavXfGnv5LpYCEJxao24np80JNk+jS5brXE8Ua9xsxZJySnYWg4AZMUVAADM4dmzZ+8cOnrsK62L56iqOpdnKtt6z89UbN/hfK2Lx/7eAwb53Lxz5xM2C1r6tQMAsDSuAABQFokZGXZzt2z9c4PGTVurNLqf1D/v4CENQhUdC4IvvtY6zp42b75+/7Vr3NcRAMCSuAIAQFl07Rfh+W9n9+1CyElkQcdA+IH/U1jZQX/dNbR+nzPnzn8m/VoCAFgKVwAAMNa9e/ffnzl3nsbR3XO2EGrS1bjrZwwWkgvsnd2vBgQHN7oTGfmHlJQU7msMAGBOXAEAoLSuXr1qt3jpsi8cnV0Hq7W6u2oEv7LKUts7ruoXMTBw6dKlWDYGACyGKwAAlEZMbOz7gXXrNfyqqv0hcYYrH2bANIVCmH4sfF2nL1215u/SrzsAgDlwBQCAN8nJybW7E3n/4049ero4uHruUWl1uUJYwV0/C1AJQbCa3uWB3tO7z5FjJ7549uwF9/0AADAVVwAAeJNpM+Y6fF3VZaoQTmLVmOBRXgpV9vpDdcNaN7h77/6n0u8JAIApuAIAgNSRo8d/36PvgK5VHZ2vCYEk30BIAct6rdLqXtRt2GTNwKEjtdLvDwCAsbgCAACTnJxsd+/+/U/da9RsoHF2P6vWsMe9uOsnJ5VGxxbTTnLy8h03c/4C1YPo6Pek3zcAgNLgCgAA8QkJ7/fs08+nila/SK3RY4KH9SkUXNW7ufc8/uPJv0i/fwAAb8MVAKBim7dwyZ9adeg8Va3RPfhP0JCGD7Ae6V41Arf36j8gMObZM9wNBIBS4woAUPE8evXKbue+/X/X+fh2rqZziRSCRYGBsAFWic3C1mXo3H3WdezTp9qdO5G/zc7O5r7HAAC/xhUAoGK5cev2Jy5t2gZX1uoPCYEijw8YoBCv1Rr9w7//+8tRk6dOU0u/zwAAv8YVAKDi6B0RYV8nrNESlVaHZV1sR04VB6dzvfsPbHbk2LGPpN9zAACGKwCA7Xr9+rXdnTt33ps6ffq/3Xz8h6q1ukS24LCBEAFKpmF3A3WZGhePQz7+ATXv3Y/6OD4+nvt5AICKiysAgO06ePjoH//yjy+6CyHhghrv+VUIKo0+7d+qatNat2/vFJ+Q8BvpzwQAVExcAQBsz72oqPf6DBzk5+pbY7MQCtKlIQFsXr5aq7vVumPnUQsWLP1Y+vMBABUPVwAA25GYlPRBs5a9VXpP35VCAEjGvr0VGnssnFdN73rJ1cun6e49e/8k/XkBgIqDKwCA8hUWFtqt37j56w7deg5RafVRBsIAVGxZao1+m/Az4nfz1u0PpT8/AGD7uAIAKNuu/fvf7x0xqJFwgT8jXuj5iz/AzzT66JAGjb7v13/YV8XFxdzPEgDYLq4AAMr08NGjj2oH1/XVunruFi7uaWos6wJvx35GCoQgGOsdULv7nLnzPs/Ozn5H+rMFALaHKwCAssTGxb23YfMWB7/aId8JF/NkAxd5gLfT6PNVGv3xCd9Na3X46PHfSX/OAMC2cAUAUI4pc+b8rkW7DoPVGt1VdgHnLuoAxkt08a6xst+w4U53o6IqSX/mAMA2cAUAsG5FRUV2q9es/Uyjc65fVedyXq3V5arxuBfMq0il1b9w9vabEVQn+F9JycnvSX8OAUDZuAIAWK+r16+/v3LNOl+VRrdBjfX8oHxc79CtZ48Nm7d9UVBQwP1MAoAycQUAsD4ZmZl2vYYN/3et0LBv1RodlnWB8pZW2V5/uNegwUHb9u9/V/rzCQDKwxUAwHpkZWW907dfvz87efp2Vmn1D1UaHXvPD497QQ6vhZ/BRAc3zzVVqlV3jnoQ/YH05xUAlIMrAIB1OHjwyCejxk1oqtboDgoX3zwDF2QAmehe+NQKHrFx6w71s7jnWDYGQIG4AgDI68qVK5UiBg1x0Lv5LBcutq/UuOMHVkil0edW1uh/atGuc7eZM2fibiCAwnAFAJBHUlLyu9eu3/yXs5ffZJVGF6PW6AqlF10AK/NardFnVdM5H5rw7ZQaT2JifsdmqUt/tgHA+nAFAChf2dnZdlu37fp7i7YdOwkX06sGLrIA1k+jT6qsdVy8cs16l2vXbmKiCICV4woAUH727NlTqXfEoNpVNE57hYtoqhqPe0HZitUa3c2g0PBhY8eN/zwzM5P7mQcA68AVAMDy4p6/eH/dxs0Ojm5eS9UafYJ44eQvpgAKpBP+iNHlVHFwutGkZZsmMc9iP8vKysaOIgBWhisAgOU8iomptHXnrq+dPf2HCxfLp/zFE8Cm5Ah/4GwZNW5iyMGDxz+U/j4AgHy4AgBYxoCIiA+btm3fXuWgP67Gsi5QcbC72zGOrr6ze/Xtrzpz5gz3uwEA5Y8rAID5sK2znsXGfTRszHgPlb3DAbVWl/GfC6L0Iglg01QafUHlag73XDx9Bl6/efPz5JQUrB8IICOuAADmcfby5XcWLVvhUtleP1e4ACZKL4gAFZfjqeZt2zfZsmfvnzKzs7nfHQCwPK4AAGUTFxdn171nr7/6BtcdoNLqrwsXvCL+AghQobHZ7glfOzptGDVhoqf0dwgALI8rAIBpMjOzKsU+f/5JUFijhl9X01xUa3XZ/7nQSS9+APCzoqo6lzj/OiFT1m/apHrx8uV70t8rALAMrgAAxtu//8CHEcNGB1a2169TafT5Bi50APBm7A+le3ov7947du3+nydPnnC/YwBgXlwBAIyzbsPG/9XonWepNfrHakzwADCdRpet1jjubtamfXh8YuL70t81ADAfrgAAb5ecnFLp3IWLn9cICent4OpxW63V4a4fgHkUq7T6FJ/AOhuGjx6nef7ixQdsNr30dxAAyoYrAMCbpaWl2e3bf+CP4Y1bh6k1+pPsYmXgAgYAZfdaCIJxX2sdJy5csdL+ZGQk9/sIAKbjCgDwZv0HD/WopnNerdboXv285RV30QIA8yqo7KA/79awSadzFy59Jv2dBADTcAUA+G8vX8W/t2zlmv+tGVJ/XBUHp+cqrb7QwEUKACyH/bGV4eYbcDSsSdPAly9ffpSVlcX9rgJA6XEFAPjZ7du37bbt2PV5Na1nL+Hic1uNx70A1iBHrXGcP3jYcI+tW7dhogiAibgCAJBdTMyzD0LDGoZ++Y39NhWbmchfhABAPoVqre7uvytXGb92w6a/SX9/AeDtuAJARZVfUGD3Mj7h/f5Dhqh8atX5Qa3RJamxiweA1VJp9bkObp4Xa4XWb3n+4qU/pqSkcb/XAGAYVwCoqGYvWlztK53zGOHCEqvGDh4ASlKg0uj31Q1rWzP60aNPpL/bAMDjCgAVzfFTp38/cvzENmoH/XnhQpJn4OICANbvtUqri2ncqs288ZO+00h/zwHgv3EFgIqAzSCMT0j4bWC9ev6uPv77VVp9KruAGLioAICy5FfROj2pXa9B32Vr1vwtMTHxHenvPwAgAEIFlJiU9H7vfgOcVRrdTLVGn2vgAgIAyseWa7rgoHduy94PlI4DABUdVwCwZctWrvlT1979xqq0+tuCAgMXDQCwJRpdmk9g0OoxEyb6PY2JeU86JgBUVFwBwNakp6fbnTx56tPgemGNNS4e51RsHTHpRQIAbJiOLRvz3K92yPx+w4f/Iz4+/r38/HxurACoSLgCgC25FxX1ccMmTf2Ei8BeNSZ4AFR0r9Ua/YPP//W//afPmPWldLwAqEi4AoAtKCgosBs94btvwpq2mCEM+k8MXAgAoOLKVml0J8ZMnFz/+MmTv5WOHwAVAVcAULL8/PxKK1eu+l3d8EatVcJf+mrc9QOANxBC4CtX34DlTl26Vk1JTcVsYahQuAKAUh09erTS97PmeggD+1YBZvcCQGk9rx0W3mbX7j1/fPnyJTe2ANgirgCgRAeOHXuvuqO+uTCQ3xQUGxjgAQBKkvzPylUWdO3W/auioiJujAGwNVwBQEmKi1/bHT3x4x9cfGqMVGl1Lw0M6gAApaJir4xodBf6RAyplp2Tg0fCYNO4AoCSHDtx8p+Vtfr1aqzpBwDmE92rX0TDxMRETBABm8UVAJTi0JFjX7r5BrDwh0e+AGBObFvIR9379G9XUFBQSTr2ANgCrgBg7YqLi+2OHj+hcvWpsUMYpPMNDN4AAOaQ1GfAoBY5OTnYQQRsDlcAsHZHjp/4p1qr229gsAYAMC+N/lWPvgPaJOBxMNgYrgBgzQ4cOfpHF58ay9U/P6LhB2sAAPNiY010tz79QvPy8/E4GGwGVwCwRuyx75FjJz5y9fEfr9LqMw0M0gAAlsJCYFSfgQNVObm53PgEoERcAcAaJSWlvPtVFfeewiCcamBwBgCwuK+1+uMTZsz4l3R8AlAirgBgjWYtWOSoxp6+ACCv7LCmLaZEPYj+vXSMAlAargBgbeYvWflpdSf3vQYGYwCAcqXS6hMCgkOaZGVl4X1AUDSuAGBNXsbHf9CpR+8RwsCbJR2IAQBkcv/HU6f/KR2vAJSEKwBYi8zMLLuOXSJchb+4Iw0MwAAAsnH3rTHl2LFj70rHLQCl4AoA1uLps2cfVbZ3WiQMtkXSwRcqnioOTvSNo/P/x/639N8AlB/d47ETJ/sWFhZyYxeAEnAFAGtRs36YjzDQ5vADL1QEju7eFFS/ITVr05669+1PI8dNoKkzZtGMOfNo2szZNGbCJOrZL4JatOso/LtwcvLy4/oAsKAilVa3/vCx43+Ujl0ASsAVAKzBoUPHf+Ps5b/VwKALNozd1Qtu0IjGTvqWtu7YRddv3qKXr15RQUEBGWpFRUWUkJgo/rtde/fT2InfUkh4E6qqc+H6BjA7jf5lz94DgnNycrgxDMDacQUAubFHKsNGjfNTafQvuAEXbFI1vSvVbdiEfti0hZ7GPKOsrCx6/fo1GdPYv88UPu5pTIwYHkMbNRX7lR4LwIxeqzW61cIfKdgmDhSHKwDIbfeePR+rqmuWq7U6vPtn475xcKKwJi1o45atlJGRSeZsmZmZQr/bqHGrtnhfECwpt36DcC0ZGMsArBlXAJDbnv0HnIRB9baBgRZsiKObFw0aPpLuRN4lSzV2V/BB9EMaPHK0eDzpOQCYQ2jDplPJwFgGYM24AoCckpKS3wkIrtdDGFTzpYMs2A4nT19avHwlJScnG/2o19jG+k9OSaWlK1eRm19N7lwAykrj7HFj2crVfyUDYxqAteIKAHJ69Sr+U7VGd0w6wILt8AmsQ/sOHCQ52o+nTpNvrWDunADKRKNPGT95SlsyMKYBWCuuACCn2fPmqYQBNYMbYMEmsPC3decuyn/DrF5LN3Y3cPe+/eQfFMKdG0AZFDVo0mL+/agHmAwCisEVAOQUWLdeZwODK9gAnbs3rVi9lnJyc0nOlpeXR2vWbyBnrBsI5qTRnTp4+GhlMjCuAVgjrgAgl1sxMXYeNYN2cwMrKB6bhTvhu2niun3W0Ni6grPnL+TOE6AMkqbPX1A7v6CAG9sArBFXAJBL32nTPv3KwSnKwMAKChfevBXFPn9O1tRS09LEJWik5wpgouIvHZ16JyWnvEMGxjcAa8MVAOQyfMw4D5VG98rAwAoK5uTlSzv27KVCM939M+es4UNHj5HOw4c7ZwBTVNboVgoB8EMyML4BWBuuACCXEWPHdVFrdenSQRWUiz36jRg2glJTU8nUJi7jkpxCkXfv0fmLl8SZvGfOnaer12/Qk6cx4jt9pjZ2F3D4mPH0jaMzd+4AxlJp9FeFn9Xfk4HxDcDacAUAuYwYO36yGuv/2RRnbz86fPQYmdJY8EtKTqZtO3ZR/8HDqFZoA9K6eor9ssDm7leTmrVpT9Nnz6FrN268cb/gkho7xrETJ8kroDZ37gBG0+hTly1f/mcyML4BWBuuACCHkz+de9/NL3C1mu2tKR1UQbEaNm8l7utrbGPBLCo6mjp060lOb5mtW03vQgHB9WjhkuVUUFho9CPitPR0at2xK9cvgAlehzZobE8GxjgAa8MVAOSwc8++P6s0eswAtjFsuRVjG7uT9/OCzXW4/krCHjcPHTWGXsXHGx0CN2/fwfUHYIrgsEYhZGCMA7A2XAFADkIA/Ldaoz8uHUxBuTTO7vTg4UMyphUXF9PV69epXqNmXH+lwR4RT50xizIyMqRdl9jYDOWqOheuPwBjCQGwIxkY4wCsDVcAkMPOPXu/UWt056SDKShX/cbNxUkWxrSMzEzqEzFIvJsn7a+02CPjEydPSbsusbHgGdKgMdcXgLGEADiYDIxxANaGKwDIYeeefVph8LwqHUxBuUaNn2j0rh9Hjp/g+jFFeLOWlJ+fL+2+xDZi3ASuHwBj1WnQaAIZGOMArA1XAJCDEAD1Kq3+pnQwBeVaunK1OCmjtI29t9er/0CuH1NU17vS9Rs3pYcosa1au57rB8BYwQ0aTSUDYxyAteEKAHIQAqCzEABvSwdTUK5de/eLj1ZL25KTk6lmcD2uH1OwZWIWLV0uPUSJ7dDR41w/AMYSAuAMMjDGAVgbrgAgBwRA22Lv7C4+zjWmsbX8PPwDub5MNWDIMOkhSmwXL18p07uHAAwCICgFVwCQAwKgbXF096bjRk7EOHv+Arn5BnB9mapzz97SQ5TYrt24SdWd3Lh+AIyBAAhKwRUA5IAAaFvYEjBHjh0nYxq7A+fmZ74A2HvAIOkhSmyXr17DHUAoMwRAUAquACAHBEDbs3vfAaMWZI57/pz8agdz/ZiCBbnps+ZKD1FiO3P+AtcPgLEQAEEpuAKAHBAAbc+yVWuMmgVcVFRErTp05voxRTW9q9GPoLfu2MX1A2AsBEBQCq4AIAcEQNszbvJ3lGvkOoBs6zhpP6bwCaxDmZnG7UE8e/5Crh8AYyEAglJwBQA5IADanvDmrSgtLZ2MaSkpqeLHSfsyBpuBvG7jJqMeP7PWpnM3ri8AYyEAglJwBQA5IADaHgc3T3ryNIaMaYWFhbT/0GHyDqjN9VcabP2/Xv0GUnxCgrTrEhu7U+ni48/1B2AsBEBQCq4AIAcEQNu0efsOMrZlZ2fTkhUrxQAp7e9tGrdqS5GR94xagJq185cuYQYwmAUCICgFVwCQAwKgbWrZvpPR7wGyxh7f7tq3n2rVDaNqOheuXyknT1/q0S+CEhITjX70y+46Dh8znuvTktjn5OpTg3xrB1Ot0DCqE9aQatcLp0Dh8/WtVYdcvP2paik+b7A+CICgFFwBQA4IgLbJ3S+Azpw7T6Y0Niv4xs3bNHna91Q3vIn4eFfaPwt+XXv3pQ2bt1Jqaqq0i1K1e1FRFNKgEde3udk7u1GDZi1pyMjRtHDpctqz/4C4+PWtO5H0IPoh3b13n27evkM/nT0nbqM3f/FSGjR8JNVr3Ezc21jaH1gnBEBQCq4AIAcEQNvEQtuocRMpM8u4Gbm/blnZ2RT1IFpcWHrRshX03fSZNHPufNqwZZu4ePSr+HgqFMKiKY19HFuuRuPizp27uTi6eVGPvhF05OhxevT4MaWnp5fqETX7N2lpaRT98BEdOnqMuvTqQ1pX4x+LQ/lCAASl4AoAckAAtF2eNWqJ+wKXJvS8qbHHur9g/TC//O+ytDuRd9kFmzvnsmLvE3rXDKIxE78VQt+T/3++pjb2seyO6IOHD2nE2PHkGVCLqhg4LsgPARCUgisAyAEB0La179qDUlJSyJoaC1VjhYAmPdeyYvsJd+3VT1yIuqCgQHrYMjfWJ7sj2EH4muLRsPVBAASl4AoAckAAtG1sZw72qNWa2rkLF8XHs9JzLYuqjs7i4+kXL1+W6Y7n2xq7GxgX95ymfj8Ls5etDAIgKAVXAJADAqDtY7NeDx4+apG7YsY0Fsxu34mkug2bcOdYFjXqhNKuvfvK9fNjx9qybQf51KrDnQ/IAwEQlIIrAMgBAbBiYLN52Z03dgdLjsYe+z6NeUZdevYxOKvYVP5BIXTgyFHKz8+XHtLiLS8vj3bv20/egQiB1gABEJSCKwDIAQGwYmCPK+s3bk737keRHC0rK5t69h8oPpKWnpup2Dt/e/cfLNc7f9LGgue2nbvNGmrBNAiAoBRcAUAOCIAVi3+dunTy9BmTFok2pbHFntl6fx279+TOpSzYO4Qr16yTNfz90tg5sLUDtS4e3HlC+UEABKXgCgByQACsePyD6ooTQ9LS0smSjT1uPnD4CDVq2dqsEybYTh2DR4yixKQk6SFlay9fvaJeAwaZ9fME4yAAglJwBQA5IABWTHpPH+o/eJi42LElWnJKCs1duFhck0967LKqERRCN27dLtP6fuZubILLuQuXxO3kpOcL5QMBEJSCKwDIAQGw4qrioCd3/5o0edoMirx7T9z5oyyhik2KiHkWS6vX/UBB9cIt9l7cspWry3SerLGPZ4/B09LTRdk5OWVePoZ9/JwFi7nzhfKBAAhKwRUA5IAACEyNOnVpwndTaf+hw+Js3aKi0oUhFqTiExLox9M/0ez5C6lJq3YWfQxaM6Q+xcfHS0+j1I29r3fz1m3atHUbTfl+Jg0dOYYGjxxNE6dOpzU/bKSLV65QTo7p70e+ePmKvAJqc+cNlocACErBFQDkgAAIv2DBzc03gMKbt6IZc+ZRSmoqva2xd/xadehMPoF1qJrOhevT3GYJIdPUiR9xz1/QhG+nUlD9huRgYG9fe2d3IWDWo4HDRop7IJvS2KSXiVOmc32D5SEAglJwBQA5IACCIS3adaTYuDh6W1uwZLm4HIv04y2BTV65ev2G0Y9/2VIt7M5mUP3wUt2dZP/GJzCI1m7YKD4WN6axc7t89Zq4D7O0X7AsBEBQCq4AIAcEQDDEGgNg7wGDKCk5WXoKb237Dx42aTKKk4ePuNSMse8Gvnr1irr06sv1B5aFAAhKwRUA5IAACIZYWwBkC0izdwyN3ckkKjqa6oQ14vorLa+AWuIOKsY09oh6+uy5FpsEA4YhAIJScAUAOSAAgiHWFgA9/APp2IkfpYcvsaVnZIrv85XmsW9J2nbuRi9evpR2/8bGHgPvPXBQ3INZ2hdYDgIgKAVXAJADAiAYYm0BsGZwPbofZdw2dmfPXyC/2iFcX8Zy9vKjXXv3GfUo+PrNWxQQHMr1BZaDAAhKwRUA5IAACIZYWwCsG96EUksxK/mXxh7DLl2xymyPYcdN+paysrKkh3lji3v+nELCG3P9gOUgAIJScAUAOSAAgiHWFgAbNm9t1OzftLQ06jtoCNePqZq2aS9u91baxmYPs+V0pP2A5SAAglJwBQA5IACCIdYWANt06io9dIktMTGJWrbvxPVjKvY49+mzZ9LDvLGxx8VNWrfj+gHLQQAEpeAKAHJAAARDrC0AdujWU3roEltCYiI1a9Oe68dUPrXq0JOYGOlhSmxNEQDLFQIgKAVXAJADAiAYYm0BkJ2PMY+Ak1NSqKsZ1+Kr16gpxcU9lx7mjY29g9i4ZRuuH7AcBEBQCq4AIAcEQJBiW6L1iRhUqnfe1qzfIM6SlfZhbmFNWlBubp708G9s2Tk5NHnq91w/purVfyAlJ6dID/PGlpiURPUaN+P6ActBAASl4AoAckAABIYttNy8XUeaNXc+HTl+QtwLl22h9rbG1sc7deYMLVu1hnoPGGixte/q1G9o1Fp87B28Hbv3kKO7F9eXsdhM4kXLVpTq6/FLexAdTbXrNeD6AstBAASl4AoAckAArLh07t4U1rQlzRRCX/TDR+Jds4KCQqMetbLG/j3boSM3N5dSUlJo97791LV3P/IJrGO2ZVhYXxcvXZYeusQW8yyW2nTswvVlLLYEzc3bt436uhw7cVJcvFraF1gOAiAoBVcAkAMCYMWjcfGgVu0709oNGyk+PpEs0fLy8unKtWs0cuwE8g8KKfNuHDoPb9q4Zav0MCW2YiGwbd+1hxzdTL8LWF3vSgsWL6X8ggJp929sLCguX7WGNM7uXH9gOQiAoBRcAUAOCIAVi3fNIFq5dj09jXlm9L66xjYWhDKzsuj8pUsUMXQEdy7GYHcSp86YRYWFhdLDlNjYenyjxk3k+iutjt16GvXuH2sZGRk0dNRYri+wLARAUAquACAHBMCKwdHdm3oPGEyPnjwxOkSVtbEgmJObS9t27qa6DZtQVZ0Ld35vwoKfZ41aNH3WXIqPTzDqMewvLSk5mUZNmCQ+8pb2/ybsLmmPvgNKNRP6142d3917URQS3oTrEywLARCUgisAyAEB0PZ5BdQSH0mmpKaRnI1NzIi8d48iho0o1SNhvYcP9Rs8lH46e56KjNiH11BLSU2l1et+EAPo244dEFyPZs9fRC9KMQta2tjnuGHLNqNCLpgHAiAoBVcAkAMCoG3zFMLf3gOHKDev9EuoWLqxRZpHjpsozjyWnu8vguqH0669+8XlVEy562eoFRQW0q07d8QZva06dhED5i/H07p6iuv2zZgzjy5duSpOaDGlsZnCzdt24D4fsDwEQFAKrgAgBwRA28TucoWEN6ZTP52hQgu/62dKS0tPp7kLl5CTp+9/nTO7+zZr/gJ6/vyFeDfN3I2FSfYIPCsrW5yx/Cw2VtzijS0cnZmZJS7gbGrgZB934PARs818BuMgAIJScAUAOSAA2qZa9RrQ6bPnLBKizNXYBJEFS5aJj0tdvP2p76AhdO3GTas+55IaWzgbd//kgwAISsEVAOSAAGh72GQHdidKCUGKhcB5i5bQrr37xMkapt59k7vl5eXRwqXLxUfJ0u8HlA8EQFAKrgAgBwRA28LWvFu5Zh3lGbFrhdyNPXa19JI0lmwsaB878SP5BAZx3w8oPwiAoBRcAUAOCIC2o5rehYaPHiveSasojb3LJ3dj2+Zh2Rf5IQCCUnAFADkgANqOwLr16d79KKoILTMzk7Zs30Gjxk+i5y9Kv0ewuVtMzDPq0rMv972A8ocACErBFQDkgABoG9hEio1btpnlvT/2ODYpKZlu3o6kNes20IAhw6hJq7ZUu14DCqoXTk1bt6dBw0fSD5s20527d8WdMsxx3Lc19n5gdnYOnT1/ntp26iou1sxm3LJ9h+9HPSiXc/ilsWPduhNJHbr2wKxfK4EACErBFQDkgABoG1q270jpGZlUlsYCFpvJunX7LmovBBu2e4j0OFI6Dx/q3KM37d53gOITTNupozSNLd0SefceTfl+lnhM6Xk0a92ezl+8VC7vEhYUFNKZc+epQdMW3HmAfBAAQSm4AoAcEACVz8HNi7bv2lOm8MM+9uz5C9Stdz+jtkz7hbOXn7h12uWr16Rdl7mxRZnZxJb6jZuXuHh0nbCGtHbDRkpPz5B2YbaWmpZGK1avpcC6YdzxQV4IgKAUXAFADgiAytehWw+KjXtu8t237JwcWicEJ1cf/7duk1YS9rFufjVphxBGc4Q+y9rYe36nz5ylNp27ksbZnTueIeyxcLsu3enCpcuUkZFhlsfCrI/09HT66dx5atm+U6nPBcoXAiAoBVcAkAMCoLKxwLNs1WqTg066EJLY1mhs+Rhp36ZiQZLtPZyVbfoMXbZDx+gJk8nJ6/92CjEGe3w9ZMRo2nvgIMWZuKsIuyv6LC6Odu3bL74H6eCGNf6sGQIgKAVXAJADAqCy+dUOFt+NM6Wx9fc2bd1Obr4BXL9l5eEfSDt275UestTtxKnTJT7uLS22w0irDp1p8rTpdPDIUYoRgmVJj8rZu4ZPY57RvgOHaOJ3U8V3K3+9XR1YLwRAUAquACAHBEBla9+le4mBpqR29foNMahJ+zQXD/+a9ODhI+lhS9XYu3bsvUJpn6Zis6TZXUEWdmuHNqA2nbpSxNARNHzMONGAIcOpVccuVKtumPhvHN29MLtXYRAAQSm4AoAcEACVjT3+NaVlZGZSh249uf7Mrf/gYeL7c6a0bn37c/0BvAkCICgFVwCQAwKgst28fYdMafsOHja4nIq5edaoRUdP/Cg9fKna0pWruf4A3gQBEJSCKwDIAQFQudj7bampqWRsS0tLpz4DB3P9WQKbGTxi7HhKM+Eu4MXLV8RHt9I+AQxBAASl4AoAckAAVK5mbdpTVlYWGdsuX7tOgaHlt44de6/uQXS09DTe2h5EPxQnuUj7AzAEARCUgisAyAEBULnYJAa2SLIxjS2Hwmbn2ju5cf1ZCruLd/zkKempvLWxpWAatWjN9QdgCAIgKAVXAJADAqByTZ46nfLz88mYlpeXR7PmLeD6srRFy5ZLT+WtjW0t16VXX64vAEMQAEEpuAKAHBAAlWv+4iXiWn7GtMysLBo2eizXl6Wx9wCNbcnJKdR34BCuLwBDEABBKbgCgBwQAJVr+eo14sLFxjS2T26fiPKZAPJrbJ09YxtbC3DQ8FFcXwCGIACCUnAFADkgACqXKQEwIyOTIoQwJu3L0gYOGyE9lbe21FQEQCg9BEBQCq4AIAcEQOWas2CR0Y+As7Ozaeykb7m+LG3SlOnSU3lrS0pOpt4DBnF9ARiCAAhKwRUA5IAAqFwTp0yjPCMngbDAuGT5Kq4vS1u3YZP0VN7aXsUnUKcevbm+AAxBAASl4AoAckAAVK6+AwdTjpHLwLx+/ZoOHztu1n1238bBzYsuX70mPZW3tphnsdSgaUuuPwBDEABBKbgCgBwQAJUrrElzysw0fiHo6EePqHGrtlx/ltKyfSeKjXsuPY23tvtRD8jDP5DrD8AQBEBQCq4AIAcEQOVydPOixMQkMraxtQAnfDu1XLZZqyYcg607yI5pbDt99my5nCPYBgRAUAquACAHBEBlO3v+ApnSbt66Td41g7j+zC2kQWO6efuO+OjZ2DZ34WKuP4A3QQAEpeAKAHJAAFS2abNmk6ltxtx5VMXBievTXL4R+l6+ao24/ZyxjQVG9uhY2qe5fOPoLL6b6OLtT87efuTg6mnRrwVYHgIgKAVXAJADAqCyNWndzuiJIL+0589fUKsOlgtZbTp2pbS0dOlhS9VevoonnYc316epquldqE5YI3FdwfmLltCW7Tto38HDdPT4CTpy7ITw3w/Rpq3bxLuOA4aOoKB64eLja2k/YL0QAEEpuAKAHBAAlc0zoBadvXCRTGnsztylK1cprGkLs979Yn01bN6Kbt+JlB6y1G3/ocPiHTpp38Zgd/VqhtSjaTNn07UbN+lVfDxlZGZSfn6BwUfSrMb2Vk7PyBAC6Cu6fOUaTZo6nWrUqUtaFw+uf7AuCICgFFwBQA4IgMrGJkl8O22GSZMsfmmXrlyhRi3bcH2booqgdacudP3GLYMhq7QtKyuLFi1dTnXDGxs9EUQjhLU2nbrSpm3bxf2Ey3Ie7GPZRJt1GzeLfdo7u3HHA+uAAAhKwRUA5IAAqHzhzVtR1INoKku7cfMWde7Zx+iw9WvsY3v2jxDPpSyh65fGFq1mE0gmfjet1HfgAuvWp2UrV4trCJqzsc/nWWwsLViyjGrUCeWOC/JDAASl4AoAckAAVD4WvNi+wMZuC/frxh4HJyQm0pr1P1BNIUTZO7tzx3kTjYu7ONv3h01bKDHJ+GVpSmoseGVlZ9PJ02eoZbuO4t096fGZanpX6tyjN0XevSc+xjVHAJU21mdeXr4YStt37SEeU3oeIB8EQFAKrgAgBwRA28DedTPXXS+2BduyVWuoW5/+7KJKek9f+sbx/94RZDNo2czZug2bUPe+A2j1uh8oJTVV2o3ZW1pamvgotl6jZuI5/HI+bFeT8d9OpYyMDOmHWKylp6fTmImTyUn42ki/FyAPBEBQCq4AIAcEQNsxfdYck5ZcMdTY3a6U1DS6ces2HThylDZu2Uor1qwTsdmyh44eo9uRkeIsX0vcbXtTKxaOxc5p3OTvyNXHnxzdvWn2/IViAC3P8xC/PikpNGPOfPEcpN8LKH8IgKAUXAFADgiAtsM7MEh8VGquEPjrxgJPUVGRqDyDlqEmPhbOyqKLl6+IdwTZI2K5WlZWNk2dMatM706CeSAAglJwBQA5IADalpbtO9PDx49lD2kVqeXm5tLAoSMRAmWGAAhKwRUA5IAAaFuq611p+Jjxst4VM7axu4pKbixs338QTU1bt+O+H1B+EABBKbgCgBwQAG0Pm8G7aNkKcTasNTcWnDIzM2nAkOG0at16SkhIpOJiZd65ZCF2/8FD5FEjkPt+QPlAAASl4AoAckAAtE06d29xwkZmVhZZY2Ph78XLl+LWbL+cc+NWben4j6fEGbZKbCxwjxo/kfteQPlAAASl4AoAckAAtF2eNWrR0pWrKTfX9F1CLNVevnxFQ0eN4db18/APFEMU20bOUpNZ2HZwbAu8jZu30rxFi0XrN26mC5cui9vAleX9yQcPH5Z5CzswDQIgKAVXAJADAqBt03l406z5CygjI7NMwcZcjYW6+PgEcSHl6k6Gt1Vjkyl8awXTqrXrKTkllYqKyh4E2XFZ8Nu4dTs1atGavAJqiXdJ2TkwjkJoY4GZ7aqyZt0GSk/PMCmAssW4h4wcw31OYHkIgKAUXAFADgiAto/tWNEnYrC4g4VcEy5Y+MzJyaFjP56kBs1acudoCFvsuUmrdrR734EyLfJcWFhIV65do47de/7XAtJvwv4N2/f3/KVLVCB8rDGNfZ5nz18gZy8sEF3eEABBKbgCgBwQACsGFmrCmrSg7bv2UF5e+T8SZlvETfl+FvkHhXDn9jZsp49R4yZQ5N370m5L1Vj4q9+4Gdfv29QNbyyGOWNbbNxzatu5G9cfWBYCICgFVwCQAwJgxeLs7U/9Bg2lGzdvUU5urkUfC7NHqGz7NrZrSLM2Hd74yLc0HFw9xZnCxjY20aRh81Zcf6VVN7wJxcbGGfV1yi8ooCkzZlEVh//bPg8sDwEQlIIrAMgBAbBicnT3omGjx4l3uBIS2fIrxr/v9qbG3oN7GhND+w8ephbtOpbqsevbsPfzTp7+SXqoElt2djaNnfQtVS3D8dm5Dxk1Rnx/0Ji2e+9+chHCtrQ/sBwEQFAKrgAgBwTAis0roDZ179OfVq5dT5H37pn8eJjdIUtNS6Mz587TtJmzqUX7juTg5skdz1S16zWgp09jpIctsV2+eo1qhYZxfRmLPbY29lHwtRs3qUadUK4vsBwEQFAKrgAgBwRAYFhY86sdQs3bdqBvp8+g02fPilucva09evxEXEKFLeYc2qiZeKeOTTqR9l9WYU1blOp8fmls8saylavLdPfvF+wu4NyFiynPiIW1X7x6JXw9mnJ9geUgAIJScAUAOSAAgiHs0W1sXBy9rc2cO98sj3jfpnPPPtJDl9jYu4ds5rO0H1N16dVXnMhS2sYegzdu2YbrBywHARCUgisAyAEBEAyxtgDYf/Aw6aFLbPEJCdSkVVuuH1PVb9KC4p6/kB6mxNa6Q2euH7AcBEBQCq4AIAcEQDDE2gLgsFFjpYcusb16FS+EtuZcP6aqHdqAnsXGSg9TYuvUvRfXD1gOAiAoBVcAkAMCIBhibQGQvWNoTItPSKSmbdpz/ZgqvHlLev7ipfQwJbbWHbtw/YDlIACCUnAFADkgAIIh1hYAu/TsKz10iS0tPZ0iho7g+jFVz/4DKTk5RXqYNza8A1j+EABBKbgCgBwQAMEQawuAbDHnfCNm4bLt31asWWeWWcBsQef5i5eKCzyXtr2Kj8cs4HKGAAhKwRUA5IAACIZYWwBk6wDGPHsmPXyJje19XLdhY64vY9UKbUBXrl6Tdl9iu37zJgVgHcByhQAISsEVAOSAAAiGWFsA9AyoRad+OiM9fImNrRv4/ey5ZVqXsKrOhSZNmU45OTnS7ktsu/cdwE4g5QwBEJSCKwDIAQEQDLG2AGjv7E5LVqwyak9e1hISEsr0Ll69Rs3E/YSNaQUFhWLwxF7A5QsBEJSCKwDIAQEQDLG2AMj0HjCIkpKTpafw1vbw0RNxhxNj7gSyO3+NW7ale/ejpN29tcXGPae2XbpxfYJlIQCCUnAFADkgAIIh1hgAawTVFffYNfYuYHFxMd2LekDDx4wjjYsH16+UvZMbDRw+km5H3qWioiJpdyU2dm5sP2RnPP4tdwiAoBRcAUAOCIDwa9V0LuTg5kWDho8q1dZncxctIa2rZ7mEQHaM+cLx2D6/xjYWzFLT0ujwsePUrkt3cvL0oepC0GN3BRn233Ue3uLaffsOHqbklBSjgyZrbPbxhG+ncOcOlocACErBFQDkgAAIjE9gHerRdwBt2LTFqAWP8/Ly6Mat2zR7/kIxPHnWqMX1bU5eNWsbdX6GWrEQ7NhWcafOnKWtO3aKTp7+iV6+ihf/v7K0R0+ekrYUdxnB/BAAQSm4AoAcEAArNlffGjR01Fg6cfIUZWZlkamtuPg1JSYm0ZFjx8V9e529/bhjmQsLm+yxrrU1tk7huMm4+ycXBEBQCq4AIAcEwIqJPU5t0qotnT5zVtw1w5THnYYa6yclJZWO/3iKWrTrZJFHwzVD6tHV69fNds7maOxcjp88Td41g7jzhfKBAAhKwRUA5IAAWPF41gikGXPmUUZGJlmyscfDs+YtJJ9A84eiTj16U2xsnFWEQHYO0Q8fUov2nbjzhPKDAAhKwRUA5IAAWLH41Q6hnXv2UlZ2NpVHy8nNpQOHjlBIg7LvyPFrbF3Ab6fPEEOm3C0nJ5eGjhpjkbudUHoIgKAUXAFADgiAFYdXQG06/uNJKjBiT1tzNDYz9satW+QfFMKdU1k4unvR+k2bqUim9wHZnT+26PPSFavFQCo9PyhfCICgFFwBQA4IgBVDrdD6dPrsOdkmT7CwxPbmDWvSwqw7ZDh5+tLq9RvKNIHFlCYuK5OaSrMXLBKCqDd3XlD+EABBKbgCgBwQAG2fk5cvbd+5W5ylKmdjdwLZ5BBz3wn08K9JcxYspMzM8guBbE3BCd9NJb0QQKXnA/JAAASl4AoAckAAtH2Tpkyj3NxcsoaWn19Aa37YYNa7gAxbvJotZyOu5VdcbJHJIaxP1vejx4+pT8RgPPa1MgiAoBRcAUAOCIC2rXm7juKjSmtrvQYM5M7VHGqFhtHGLdvEhZ7NGQJZ8Hv+4gUtX72W/GsHc8cF+SEAglJwBQA5IADaLne/ANp/8JDR+9mWR7ty7Zq4np/0nM2B7cTBAuaefQcoKTm5TEGQBT92V3Hztp3UuWcfqqpz4Y4H1gEBEJSCKwDIAQHQdvWOGETJySlkSmOhiWHv7bE9gS9duUpHjp+g02fOiY9Ac/PyyvSoNTsnh6Z8P9OiS6e4+tSgxq3a0KKly+nJ0xjxHUgWhn8571+f+y//m/1/7N/kCf82Kjqa5ixcRA2atRQnm0j7B+uCAAhKwRUA5IAAaJtY+Pnx9E9kSmMhKDYujjZt204t2nU0GNLY4s5TZ8ymazdumPx+4e3IuxRUvyHXtyWwz6FmcD0aPGI0LV25mg4eOUpnz1+gi5eviM4I/33/ocO0aPlKihg6Qlwv0dzvKYJlIQCCUnAFADkgANqm5m07mLQ0Cgt/Z86dp7adu5VqkgN7jLtgyTLKMuFY+QUFNHjkaK7P8sJCoYObJzm4eiLs2QAEQFAKrgAgBwRA27RkxUoytrHwd+zEj0bflWMBiu3KkZ6eYfQjYbYwtbQ/AFMgAIJScAUAOSAA2h525+7xk6dkTGPh78dTP1FAnVCuv9Ko7uRK3077njIzjdtfmL2Xxx5XS/sDMBYCICgFVwCQAwKg7Qlr2oLS0tLJmMaWimnTuRvXlzFcfWuICz0b27r26sv1BWAsBEBQCq4AIAcEQNvDFkRms2yNaWwChDmWOOnQtYfRj4HnLlrC9QNgLARAUAquACAHBEDbw2a5FhQUUGkbW+qldceuXD+mqK53FWf3GtOOHDvO9QNgLARAUAquACAHBEDbwmaz7tq7z6i7cGzJF5/AOlxfpmAza1etWy89RInt6vXrpZpxDFASBEBQCq4AIAcEQNtS3cmNDh87TsY0th6em695JmKwADpm4mTpIUpst27fIWdvP64vAGMgAIJScAUAOSAA2hZHd286ftK4iRhHj58QApg/15ep+g4aIj1EiS3y7j3yrFGL6wfAGAiAoBRcAUAOCIC2RePiQUdP/EjGtFNnzpp1KZaho8dKD1Fiu30nklx9A7h+AIyBAAhKwRUA5IAAaFvYO3gHDh8hY1rUg2jyCqjN9WUK9gh47sLF0kOU2K7fvEVaV0+uLwBjIACCUnAFADkIAdBJCIC3pIMpKNeaHzZSUVERlbaxWcBNWrbl+jEFewfxyrXr0kOU2NiexdJ+AIwVHNZoOhkY4wCsDVcAkIMQAB2EwfOadDAF5fpu+kzKy8sjY9rKteu5fkwR2qip0cdevX4D1w+AsYQAOIkMjHEA1oYrAMhBCIDV1Br9BelgCsrVpVcfyszKImMaWwqmVmgY15cx2OPnDVu2Srt+axsxdjzXF4Cx6jRoNJIMjHEA1oYrAMhh5569X6o1uh+lgykol7OXH718+YqMaeyRMXt30LNGINdfabAFoFmQS0lNlXZdYisUjutfO4TrD8BYwWGNepCBMQ7A2nAFADkIAfAvKo1ur3QwBWU7cuwEGduysrJoxZp1QoD05forCZv40b1Pf3r46LG0y7e2+w8eiHcOpX0CGCu4QaNwMjDGAVgbrgAgh517936o0uo2SAdTULaIocPJlMZC4Kat28W7iNI+DWHhr0/EIHoWG2fU7iO/tDkLFnF9ApgiOKyROxkY4wCsDVcAkENxcbHdsNFjpwsDaIF0QAXl8g4MEhdYNqUJPxP06PETGj95CrurIu7SUVXnIvbLAp+Dmyf51Q6mTj1605Hjxyk3N9ek8MdCY1iT5ty5A5ggJyJi4N/IwBgHYG24AoBcRowZ30Ot0WcaGFRBoao7udL0WXMoLz+fTG3svcDoh49ox569tHDpcpom9Mfu2K3fuInOXbhIWdnZ0g8pdWNLz6z9YQM5untx5w5gLJVWH5mcnPIpGRjfAKwNVwCQixAAg4QAmCAdVEHZQhs2pTuRkWSuxu4MmqvFxj2nVh07c+cMYAohAO4UAuDHZGB8A7A2XAFALoOHjvxL5eqOj6SDKijfoBGjKCMzk6ypsSA5beZs7lwBTPT6a61+aFJyyrtkYHwDsDZcAUAu27Zts9O5eR02MLCCwmldPWjX3v1kTe3y1euk9zRupjFACTK6DIiol52Tw41tANaIKwDIKTCk/ggDAyvYADaRI/KeaRNCzN1inj2jtp26cucIUAY3Dx456kgGxjUAa8QVAOTUpVd/e2EgzTUwuIINaN6mA925e8+s7/EZ09gsYRb+evaLEGcSS88PwETFX1bVrN574OAnZGBcA7BGXAFATi9fxf9BpdWfNTDAgg1goatj917irF45WmJSEvUfPIyqYtFnMCtdRlBoWO9bt25xYxqAteIKAHISAuBvvrbXjxEG1df8IAu2gIXAdl26U7QJO3aUpT1//oIGjxiNHT/A7FRa3eNx306pTgbGNABrxRUA5PT69Wu7bbt2ewt/UUdLB1mwLbVCw2jn3n2UaeHZwXl5eXTi1E8U3qwlHvuCRYSEN15VUFDAjWcA1owrAMhtz779f1BrHNcLA2uRdKAF28J295g09Xt6EB1t9vcCi8X3/WJp8fIV5OEfyB0bwEzyQ5o0CyADYxmANeMKAHKLj4+369S9VwuVVp9sYLAFG8O2d2vYrCUtWbGKkpNTyByNbQu3ftNmat6uI2lcPLhjApjRTz+eOfN7MjCWAVgzrgBgDRauWvVbe2f3EwYGW7BRLAj6BAbRd9/PpAsXL1Hc8+fiNm9vuzPIZvbm5OTQy1fxdPX6DZq7cDEF1Qv///sGA1iKSqvLDKwb2iIjM7MSGRjHAKwZVwCwFnVC64cJg2yedNAF2+fo5kVNW7ejcZOn0Io162jvgYN05tx5unzlGt28fZuuXL1G585foIOHj9Ka9Rto8rTvqW2XbuTk5cf1BWAhxUIA3H/42PEvpGMXgBJwBQBrceTo0c9UWv1BAwMvVCDsTp6Ltz/51w6hwLphVCesIdUS/rNGnbrk5htA1fSu3McAlIPkHn36t0tITHxHOnYBKAFXALAWKampdoFBwYEqje6ZgcEXAEA2GhePzcvWr/+tdNwCUAquAGBNIu/d+7he42ZT1dgdBACsx6vFy5Y7SMcrACXhCgDWZuz4775Wa/Q3DQzCAADlreDr6vqxGRkZ70rHKgAl4QoA1iYvL8+ua+9+ASqtPsXAYAwAUF4K3f1rbjj500+fs0XrpWMVgJJwBQBrlJyc8v43DvqxwgCcaWBQBgCwPI3+xndTZzlLxycAJeIKANYoPz/fbvqsWX9XaR03CANxATcwAwBYlC6nZnCD+lFRjzDrF2wCVwCwVmyvzXmLF3+hcXY7IgzIr/kBGgDAEnSpAcGhfZKSk9+TjksASsUVAKzdvIWLqwuD8iU1QiAAWJhKq08Pb9Zy7IOHDz+VjkUASsYVAKxdfkFBpemz5tRg7+OoEQIBwIICQ8OmR0U//KN0HAJQOq4AoAQFBQXvzF+0VK9xdj+jRggEAPN6LfyBmR4QHDo1OTnlQ+n4A2ALuAKAkixYvLSaMFifUGNiCACYi0YXH96s5bDoh4/w2BdsFlcAUJKCgkK772fPEUKg7gdh4M7jBnIAAOOkBIU2aP3gQfQn0vEGwJZwBQClYbODFy9e/ElIg0YjhcE7QVBsYFAHAHgjlfAH5FdVNT/51Qn2T0lNxVIvYPO4AoBS5eXnv9O1V7+GKo3+tDCg50sHeAAAQ9hMX8+A2jOGDh/51b1797ixBcAWcQUAJYtPSHy3ZZt2Vf5dpfp3wsCeIx3oAQB+pUhwrbqjvt3ZCxd/Jx1PAGwZVwBQuqysLLuXL1++H9ywkZ+bb8ABYYBPNTDwA0DFVSh4HhLeaMyyVav+kZKS8g729oWKhisA2JJjJ05+pnFy6ajW6C+q8VgYoKJ7rdLqE6rrnFf1GTDQRzpeAFQkXAHA1hw7ftxu9tz59t9oHccLF4CXBi4KAGD7ilUa3fm69ZvVO3Ls2B9TUlK4sQKgIuEKALaIzRROSk5+v//gwWq/oJBNKq0ukV0QDFwkAMCWaPQFDq5eN0PCGvU6d/7iX9PTMypJxweAiogrANi6R4+ffBhcv0GDL6va71Rj7UAAW8X+wHtSxd5h7pr1G7+SjgMAFR1XAKgIbt++bbd7375/fKV17C9cJO7952IhvYAAgCLpCtni8BHDhtc8cODgR9LffwBAAIQKLiEx8b2lK1b/b1D9hpOEC8cL9c+zAw1cUADAyrH9e7O+qqo5Fxga1jgxMenj7JwcPO4FeAOuAFBR9eoX4feNVr9WuIiw3UReG7jAAIB1KlJpdLdq1A6OGDBw0OePHz/mfr8B4L9xBYCKis0K3H/w4J9CGjYKV2l1F9R4LAxg/TT6ZLXWcd6ipctdL1++jC3cAEqJKwBUdKmpqZXOnD//ea36Yf0dXD3vsFmE3EUHAORULPxepn1VVXtw6KixrvEJCR+ymf7S32UAeDOuAAD/Z836DZVVTq7zVRrdU/Giw1+IAKBc6QpUWt2xJm3ad4gYOAjbtwGYiCsAwH/bc+TIxwOGDKut1jpu/nl2ofSCBADlQxfr6OYxavf+A18/fPIEj3sByoArAAAvKyur0qv4+N/VDKnf/KuqmksqjT5bjYkiAOWB3XmP13t4L163YZN9QkLC+9LfTwAwHlcAgDd7+vSpXZ/+A/7hFxg6RK3R3fnPxUl6wQKAsmN/YKUJdvcdODh0165dWNIFwIy4AgC83cWLV99duGS5h1rjtEi4QKUYuHgBQFlo9LeatGzbYfe+/f/IyMD2bQDmxhUAoHTYrMMXL199NHTUGK+qOuejao0uQ63V4bEwgOkKVRr9Y1ffmpOuXr/xz9TU1Helv3cAYB5cAQCMN3PW7N81a9W+q1qjP4llYwBMoXuldfNYOXTkJN3589dxxw/AwrgCAJjm8eOn7+zavU/l6OE5TriYxfEXOAAwgP3BdHj42PGNDx09+qn09woALIMrAEDZvHz16oO1P2zUObp5rFRrdIlqTBQBkGKvSuQJfyjd9woI7Nard58/ZGdnY1kXgHLEFQDAPDZt2lSpd7+IsMoapwPCxS79Pxc96YUQoMJRafUPaoXWnzxy9JivkpOTud8dALA8rgAA5pORkVlp+669XzRt1a6rcOGLlF4IASqYzMoa3cYVa9b5X7l27QPp7wsAlB+uAADml5yS8p63r++XLr7+01RaXYxaoysycHEEsEXsznf2N3qXsy6e3qErV636fWFhIfc7AgDliysAgOWcv3Kl0sBRo120Lp5r1Rp9goGLJYAN0bEJHldatu80eMrs2Z9Jfx8AQD5cAQAsb/+hI58NHzO+hXBxPKH+eRakgYsngKKleNYInLZ9125tTGzse9LfAQCQF1cAgPKRlZX1Tq/evf/s7hvQR6XVP1JrdflqTBQBZXut1uhSHN29dtQKDvG+fz/qQ+nPPQBYB64AAOUrJTXVbuCo0apadetNFy6ejw1cVAGUIFut0Z/uN3BI8+27d2OCB4CV4woAII8rV6/+dsXqtYHChXSbeDHlL7AAVkml1T1q27nroG3bd1XOy8vDLh4ACsAVAEA+hYVFdjt27vpD7ZDQRlV1LpeFi2uuGo+FwToVqbW6eFffGsuateilSk5JeV/68wwA1osrAIB1mDpr9h9btOs4UqXR3RQUGrgAA8glzdnbf8ugESNr3Lpz5zfSn10AsH5cAQCsx7Nnsb/ZvG2Hk2dArdnqn3cTkV6IAcqT8IeI7uJf/vFF11179/9Z+vMKAMrBFQDA+ty9/+BjD+/6AQ5uXvuFCzCCIJQrlbhUke6ld83aw6ZOm/bFw4cP3ysqKuJ+TgFAObgCAFivHXv2fNgnYlAb4YJ8Qbgw50gv1AAWEFenQaNFA4cNc8jNy+N+JgFAmbgCAFi3vPz8SkNHjvrmf76sPFKt1T01cMEGMIc84Q+Nw44tW4XcuHX7E+nPIQAoG1cAAOuXkZFh9/Dhow9at21XzcXb7wchCCYLF+xiAxdxAGPlV9O73nIPqNVx5959f4tJSOB+/gBA+bgCACjL7cjI9wcMGRbk4u2/U7h4Zxq4oAOURqFao49q07HLtDnzF/9F+nMGALaFKwCAMu05cOhvf/H17yNcyK+rxTXauAs8wJvkVtHqF3fv1cf75atX2MUDoALgCgCgTMXFxXZRz2J/893UqV96+Nccp9Lok1Tish3cxR7gZxpdlqOb12n3moH1ox8++iQlJYX7uQIA28QVAED58vPz7foNGuYSFNZwlRACX3IXfqjo8tVa3Y3+g4Z2PXDw8KfSnx8AsH1cAQBsx/Wbtz4LDApuoNLoT6o1bC03LghAxcK2FXzxlaPTd5O+n6GT/rwAQMXBFQDAtsTFxVXasWfv/7j51+hVTe8SpRYX9eWCAdg0XbFKq8t09vLd26l7D13048cfZefmcj8rAFBxcAUAsF0z5y34+xdfqeYKoeCxGhNFKgaNLverqvYHAkNCGz589Pi30p8JAKiYuAIA2C42UWTx0qUfdujTt2ZlB/0qNe4G2rJitVZ3r5pWN2T12nVfXL58mft5AICKiysAgO1LTEmxe/Dw4Weufn7Nta6el4SwkKv++f0waYgA5WF3dlPd/GrMnDlnbrWHDx++L/3+AwBwBQCoWA4ePvonB2e3fmqt7o4ay8Yo2WuVVpf4L2e3LR169/ORfp8BAH6NKwBAxbNz5067ydOnu1V2dJqt0uoTWJgwEDDAehVX1urOB4U3arF0564/v0pN5b7HAAC/xhUAoGLKzsmxi4qO/l37Lj09dB4+x4QgmKPWIAhaM7bQdzW962MX7xrDDx459mXs8+eVpN9XAABDuAIAwKMnTz6q17hZ6ypa/XGVVpcvDR4gM404wSO2ms5pyeIVK7+Wfv8AAN6GKwAAMPfv37dbv3HTl9Uc3MYKoeORGo+FrUWBSuO4pdeAiHqbNm/+SPp9AwAoDa4AAPBrUVHRv50xe57e2ct/qRA+0tXi8iJcKAHLeq3W6PO1rp53/OoEt78XFfWn5JQUPO4FAJNxBQCAN+nUvVeQyt5hrxBIUsVQwgcVMD+2i8ddz1p1Rp48/dPn0u8JAIApuAIAwJskJibarVqz9vPQRk06qrW6q2qEQItSafVJKq3jsumz53gfO3v2Hen3AwDAVFwBAOBtYuPi3j145Kja3tn9W5W9Y5xag23lzEajf63S6PMq2zv+1KN/RODd+/c/zcvL474HAABlwRUAAEprz549dh06da1mr3NZJ4SXl2rcESwbjS5fba8/W69Ri+6dOnXGBA8AsBiuAABgrE2bN3/Sa8DApiqtfh9bm44LNvB2Gn2s3sN30qo1P3xz//5DPO4FAIviCgAApkhOSXkn8u69z71qBvWubO/4+D9BEHcES8a+PhnV9a4bFy5Z5hn14OGH0q8rAIAlcAUAgLKIiYmxa96y1T89a9b+VqXVPfxPyJEGn4rutYotqaNxPNaha496W7ZswZIuAFCuuAIAgDkcP3XqvWmz5tQUws4PgjQDIajCUmn0Nxs2b9171Zo1X2RkZHBfOwAAS+MKAADmwmav3o68+6ce/QY0qKJ1uq7W6AvUFfWOoEZfrNLoEuxd3OeePH3mm7i45+9Jv14AAOWFKwAAWMLo0WM+qdeo6SCVVndNCEQsCPIhyTYJgVeXqHXx2NCtVx/9hQsX8LgXAGTHFQAALOV+VNS7y1avcXDy9p0pBKN4A2HJ1uSrtPrjEUNHtN28ffvvpV8PAAC5cAUAAEu7FxX1u/mLlwVWdXRhy8Zkq23rsTD7XIqEz+tFUP3wiFt3Iv8nNTXtXenXAABATlwBAKC8LN248d3Wnbo2U2t15wRZBsKUAuke+wUFz2rfv/+Xqenp3OcMAGANuAIAQHnKzMystGzVqq8btmg1VKXRPeADlUJo9Blqe8ftcxYsrP3TuXMfSD9PAABrwhUAAOTwLDbuA61O71BN77ZGCFPpao1OCY+FXwvnWajWOt36UlW11dx58/9aWFjIfW4AANaGKwAAyOnChavvdO7a10fr4rlTrdUliSGLD15WQJev0uhuhDVpMXLs2GmfSD8PAABrxhUAAKzBxq07/jBg6PD2Kq3jfiFw5fABTDYskD71rBk4acnyVQ6PnjzFen4AoDhcAQDAWqSkpr57/eatv9eqGx5eTe96Qq3R56i0+iIDoczS2NZthVUcnJ5Vd3Ift3z1Oqf7Dx5g314AUCyuAABgjS5fvvZex669ndp07jZNCGSXVVpdvKXDoEq886i7H1AndFuH7r06Tpg4HY96AcAmcAUAAGuWm5tbacnylV8uXr6ikVfNWhPVGv0RQazAPGFQo2fL0VwWgt/KoaPH9hGO43bh4uWPpOcBAKBkXAEAQCnuRUW9f+3GzS8EmrrhzepVd3KdWM3JbYvgVlWdS7pKq8sXwhxTIO5DLO5FrGPb0LH/zK/i4JRd3cktVvj3J6s5uc6trnfruvaHjV5Cf19fu3Hjs/T09HekxwQAsAVcAQDAFly/c6dSmx49/tCxe88qHbv1dOzQtacH07FbD5eO3XvZd+ze/V/jZ836jfTjAAAqAq4AAAAAALaNKwAAAACAbeMKAAAAAGDbuAIAAAAA2DauAAAAAAC2jSsAAAAAgG3jCgAAAABg27gCAAAAANg2rgAAAAAAto0rAAAAAIBt4woA8P82ikfxKB7Fo3gUD28MABn+2DLnewm6AAAAAElFTkSuQmCC;clipPath=inset(0% 24.33% 0.3% 22.33%);" parent="J-4PL1bRExIhTpd28Z0a-49" vertex="1">
          <mxGeometry x="223.1" y="4.38" width="40.46" height="42.62" as="geometry" />
        </mxCell>
        <mxCell id="J-4PL1bRExIhTpd28Z0a-83" style="edgeStyle=orthogonalEdgeStyle;rounded=0;orthogonalLoop=1;jettySize=auto;html=1;startArrow=classic;startFill=1;strokeWidth=5;" parent="1" source="J-4PL1bRExIhTpd28Z0a-43" target="J-4PL1bRExIhTpd28Z0a-74" edge="1">
          <mxGeometry relative="1" as="geometry" />
        </mxCell>
        <mxCell id="J-4PL1bRExIhTpd28Z0a-43" value="" style="html=1;shadow=0;dashed=0;shape=mxgraph.bootstrap.rrect;rSize=5;strokeColor=#6C767D;html=1;whiteSpace=wrap;fillColor=#ffffff;fontColor=#212529;verticalAlign=bottom;align=left;spacing=20;spacingBottom=0;fontSize=14;" parent="1" vertex="1">
          <mxGeometry x="628" y="40" width="702" height="720" as="geometry" />
        </mxCell>
        <mxCell id="J-4PL1bRExIhTpd28Z0a-44" value="Application Servers" style="html=1;shadow=0;dashed=0;shape=mxgraph.bootstrap.topButton;rSize=5;perimeter=none;whiteSpace=wrap;fillColor=#008a00;strokeColor=#005700;resizeWidth=1;fontSize=18;align=left;spacing=20;fontColor=#ffffff;" parent="J-4PL1bRExIhTpd28Z0a-43" vertex="1">
          <mxGeometry width="702" height="50" relative="1" as="geometry" />
        </mxCell>
        <mxCell id="J-4PL1bRExIhTpd28Z0a-23" value="&lt;span style=&quot;font-size: 20px;&quot;&gt;&lt;b&gt;Roles&lt;br&gt;&lt;/b&gt;&lt;/span&gt;- Route Request to Server&lt;br style=&quot;font-size: 14px&quot;&gt;&lt;div&gt;- Request Authentication&lt;/div&gt;&lt;div&gt;- Serve Passport&lt;/div&gt;" style="html=1;shadow=0;dashed=0;shape=mxgraph.bootstrap.rrect;rSize=5;strokeColor=#6C767D;html=1;whiteSpace=wrap;fillColor=#ffffff;fontColor=#212529;verticalAlign=bottom;align=left;spacing=20;spacingBottom=0;fontSize=14;" parent="J-4PL1bRExIhTpd28Z0a-43" vertex="1">
          <mxGeometry x="46" y="308" width="270" height="160" as="geometry" />
        </mxCell>
        <mxCell id="J-4PL1bRExIhTpd28Z0a-24" value="Gateway Server" style="html=1;shadow=0;dashed=0;shape=mxgraph.bootstrap.topButton;rSize=5;perimeter=none;whiteSpace=wrap;fillColor=#60a917;strokeColor=#2D7600;fontColor=#ffffff;resizeWidth=1;fontSize=18;align=left;spacing=20;" parent="J-4PL1bRExIhTpd28Z0a-23" vertex="1">
          <mxGeometry width="270" height="50" relative="1" as="geometry" />
        </mxCell>
        <mxCell id="J-4PL1bRExIhTpd28Z0a-41" value="&lt;span style=&quot;font-size: 20px;&quot;&gt;&lt;b&gt;Roles&lt;br&gt;&lt;/b&gt;&lt;/span&gt;- Manage User&lt;br&gt;- Support SSO" style="html=1;shadow=0;dashed=0;shape=mxgraph.bootstrap.rrect;rSize=5;strokeColor=#6C767D;html=1;whiteSpace=wrap;fillColor=#ffffff;fontColor=#212529;verticalAlign=bottom;align=left;spacing=20;spacingBottom=0;fontSize=14;" parent="J-4PL1bRExIhTpd28Z0a-43" vertex="1">
          <mxGeometry x="46" y="97.92000000000002" width="270" height="140" as="geometry" />
        </mxCell>
        <mxCell id="J-4PL1bRExIhTpd28Z0a-42" value="User Server" style="html=1;shadow=0;dashed=0;shape=mxgraph.bootstrap.topButton;rSize=5;perimeter=none;whiteSpace=wrap;fillColor=#60a917;strokeColor=#2D7600;fontColor=#ffffff;resizeWidth=1;fontSize=18;align=left;spacing=20;" parent="J-4PL1bRExIhTpd28Z0a-41" vertex="1">
          <mxGeometry width="270" height="50" relative="1" as="geometry" />
        </mxCell>
        <mxCell id="J-4PL1bRExIhTpd28Z0a-26" value="&lt;span style=&quot;font-size: 20px;&quot;&gt;&lt;b&gt;Roles&lt;/b&gt;&lt;/span&gt;&lt;br style=&quot;font-size: 14px&quot;&gt;&lt;div&gt;- provide OAuth2.0&lt;/div&gt;&lt;div&gt;- provide Passport&lt;/div&gt;" style="html=1;shadow=0;dashed=0;shape=mxgraph.bootstrap.rrect;rSize=5;strokeColor=#6C767D;html=1;whiteSpace=wrap;fillColor=#ffffff;fontColor=#212529;verticalAlign=bottom;align=left;spacing=20;spacingBottom=0;fontSize=14;" parent="J-4PL1bRExIhTpd28Z0a-43" vertex="1">
          <mxGeometry x="46" y="514" width="270" height="150" as="geometry" />
        </mxCell>
        <mxCell id="J-4PL1bRExIhTpd28Z0a-27" value="OAuth Server" style="html=1;shadow=0;dashed=0;shape=mxgraph.bootstrap.topButton;rSize=5;perimeter=none;whiteSpace=wrap;fillColor=#60a917;strokeColor=#2D7600;fontColor=#ffffff;resizeWidth=1;fontSize=18;align=left;spacing=20;" parent="J-4PL1bRExIhTpd28Z0a-26" vertex="1">
          <mxGeometry width="270" height="50" relative="1" as="geometry" />
        </mxCell>
        <mxCell id="sYjiLbDPjaKwEEcCY0Ay-1" value="&lt;span style=&quot;font-size: 20px;&quot;&gt;&lt;b&gt;Roles&lt;br&gt;&lt;/b&gt;&lt;/span&gt;- Data Store&lt;br&gt;&lt;div&gt;- Data Processing&lt;/div&gt;" style="html=1;shadow=0;dashed=0;shape=mxgraph.bootstrap.rrect;rSize=5;strokeColor=#6C767D;html=1;whiteSpace=wrap;fillColor=#ffffff;fontColor=#212529;verticalAlign=bottom;align=left;spacing=20;spacingBottom=0;fontSize=14;" vertex="1" parent="J-4PL1bRExIhTpd28Z0a-43">
          <mxGeometry x="362" y="430.92" width="270" height="140" as="geometry" />
        </mxCell>
        <mxCell id="sYjiLbDPjaKwEEcCY0Ay-2" value="Asset Core" style="html=1;shadow=0;dashed=0;shape=mxgraph.bootstrap.topButton;rSize=5;perimeter=none;whiteSpace=wrap;fillColor=#60a917;strokeColor=#2D7600;fontColor=#ffffff;resizeWidth=1;fontSize=18;align=left;spacing=20;" vertex="1" parent="sYjiLbDPjaKwEEcCY0Ay-1">
          <mxGeometry width="270" height="50" relative="1" as="geometry" />
        </mxCell>
        <mxCell id="sYjiLbDPjaKwEEcCY0Ay-3" value="&lt;span style=&quot;font-size: 20px;&quot;&gt;&lt;b&gt;Roles&lt;br&gt;&lt;/b&gt;&lt;/span&gt;- Business for Frontend" style="html=1;shadow=0;dashed=0;shape=mxgraph.bootstrap.rrect;rSize=5;strokeColor=#6C767D;html=1;whiteSpace=wrap;fillColor=#ffffff;fontColor=#212529;verticalAlign=bottom;align=left;spacing=20;spacingBottom=0;fontSize=14;" vertex="1" parent="J-4PL1bRExIhTpd28Z0a-43">
          <mxGeometry x="362" y="226" width="270" height="140" as="geometry" />
        </mxCell>
        <mxCell id="sYjiLbDPjaKwEEcCY0Ay-4" value="Asset BFF" style="html=1;shadow=0;dashed=0;shape=mxgraph.bootstrap.topButton;rSize=5;perimeter=none;whiteSpace=wrap;fillColor=#60a917;strokeColor=#2D7600;fontColor=#ffffff;resizeWidth=1;fontSize=18;align=left;spacing=20;" vertex="1" parent="sYjiLbDPjaKwEEcCY0Ay-3">
          <mxGeometry width="270" height="50" relative="1" as="geometry" />
        </mxCell>
        <mxCell id="J-4PL1bRExIhTpd28Z0a-21" value="&lt;span style=&quot;font-size: 20px;&quot;&gt;&lt;b&gt;Roles&lt;/b&gt;&lt;/span&gt;&lt;br style=&quot;font-size: 14px&quot;&gt;&lt;div&gt;- reverse proxy to Application Server&lt;/div&gt;&lt;div&gt;- provide Web Page&lt;/div&gt;&lt;div&gt;- provide TLS&lt;/div&gt;&lt;div&gt;- provide static Resources&lt;/div&gt;&lt;div&gt;- other Security Settings...&lt;/div&gt;" style="html=1;shadow=0;dashed=0;shape=mxgraph.bootstrap.rrect;rSize=5;strokeColor=#6C767D;html=1;whiteSpace=wrap;fillColor=#ffffff;fontColor=#212529;verticalAlign=bottom;align=left;spacing=20;spacingBottom=0;fontSize=14;" parent="1" vertex="1">
          <mxGeometry x="318" y="310" width="270" height="190" as="geometry" />
        </mxCell>
        <mxCell id="J-4PL1bRExIhTpd28Z0a-22" value="Nginx" style="html=1;shadow=0;dashed=0;shape=mxgraph.bootstrap.topButton;rSize=5;perimeter=none;whiteSpace=wrap;fillColor=#1ba1e2;strokeColor=#006EAF;fontColor=#ffffff;resizeWidth=1;fontSize=18;align=left;spacing=20;" parent="J-4PL1bRExIhTpd28Z0a-21" vertex="1">
          <mxGeometry width="270" height="50" relative="1" as="geometry" />
        </mxCell>
        <mxCell id="J-4PL1bRExIhTpd28Z0a-5" value="" style="shape=image;verticalLabelPosition=bottom;labelBackgroundColor=default;verticalAlign=top;aspect=fixed;imageAspect=0;image=https://storage.googleapis.com/sy34-ghost/2021/07/3630px-Nginx_logo.png;clipPath=inset(17.96% 30.33% 19.9% 29.67%);" parent="J-4PL1bRExIhTpd28Z0a-21" vertex="1">
          <mxGeometry x="223.5" y="4.4399999999999995" width="38.95" height="41.56" as="geometry" />
        </mxCell>
        <mxCell id="J-4PL1bRExIhTpd28Z0a-28" value="" style="html=1;shadow=0;dashed=0;shape=mxgraph.bootstrap.rrect;rSize=5;strokeColor=#6C767D;html=1;whiteSpace=wrap;fillColor=#ffffff;fontColor=#6C767D;verticalAlign=bottom;align=left;spacing=20;spacingBottom=0;fontSize=14;" parent="1" vertex="1">
          <mxGeometry x="70" y="330" width="200" height="160" as="geometry" />
        </mxCell>
        <mxCell id="J-4PL1bRExIhTpd28Z0a-29" value="Client" style="html=1;shadow=0;dashed=0;shape=mxgraph.bootstrap.topButton;rSize=5;perimeter=none;whiteSpace=wrap;fillColor=#e51400;strokeColor=#B20000;resizeWidth=1;fontSize=18;align=left;spacing=20;fontColor=#ffffff;" parent="J-4PL1bRExIhTpd28Z0a-28" vertex="1">
          <mxGeometry width="200" height="50" relative="1" as="geometry" />
        </mxCell>
        <mxCell id="J-4PL1bRExIhTpd28Z0a-1" value="" style="dashed=0;outlineConnect=0;html=1;align=center;labelPosition=center;verticalLabelPosition=bottom;verticalAlign=top;shape=mxgraph.weblogos.android;fillColor=#A4CA39;strokeColor=none" parent="J-4PL1bRExIhTpd28Z0a-28" vertex="1">
          <mxGeometry x="20.00000000000003" y="60" width="67.60000000000001" height="80" as="geometry" />
        </mxCell>
        <mxCell id="J-4PL1bRExIhTpd28Z0a-2" value="" style="dashed=0;outlineConnect=0;html=1;align=center;labelPosition=center;verticalLabelPosition=bottom;verticalAlign=top;shape=mxgraph.weblogos.chrome" parent="J-4PL1bRExIhTpd28Z0a-28" vertex="1">
          <mxGeometry x="102.4" y="62.30000000000001" width="74.8" height="75.4" as="geometry" />
        </mxCell>
        <mxCell id="J-4PL1bRExIhTpd28Z0a-71" style="rounded=0;orthogonalLoop=1;jettySize=auto;html=1;entryX=0.002;entryY=0.51;entryDx=0;entryDy=0;entryPerimeter=0;strokeWidth=5;" parent="1" source="J-4PL1bRExIhTpd28Z0a-21" target="J-4PL1bRExIhTpd28Z0a-43" edge="1">
          <mxGeometry relative="1" as="geometry" />
        </mxCell>
        <mxCell id="J-4PL1bRExIhTpd28Z0a-82" style="rounded=0;orthogonalLoop=1;jettySize=auto;html=1;entryX=-0.002;entryY=0.539;entryDx=0;entryDy=0;entryPerimeter=0;strokeWidth=5;" parent="1" source="J-4PL1bRExIhTpd28Z0a-28" target="J-4PL1bRExIhTpd28Z0a-21" edge="1">
          <mxGeometry relative="1" as="geometry" />
        </mxCell>
      </root>
    </mxGraphModel>
  </diagram>
</mxfile>
